<svg xmlns="http://www.w3.org/2000/svg" xmlns:xlink="http://www.w3.org/1999/xlink" width="40" zoomAndPan="magnify" viewBox="0 0 30 30.000001" height="40" preserveAspectRatio="xMidYMid meet" version="1.0"><defs><clipPath id="faac36fffd"><path d="M 1.078125 5.171875 L 28.660156 5.171875 L 28.660156 23 L 1.078125 23 Z M 1.078125 5.171875 " clip-rule="nonzero"/></clipPath><clipPath id="2668404f2c"><path d="M 0.339844 0.34375 L 27.660156 0.34375 L 27.660156 17.296875 L 0.339844 17.296875 Z M 0.339844 0.34375 " clip-rule="nonzero"/></clipPath><clipPath id="67bcc928d4"><rect x="0" width="28" y="0" height="18"/></clipPath></defs><g clip-path="url(#faac36fffd)"><g transform="matrix(1, 0, 0, 1, 1, 5)"><g clip-path="url(#67bcc928d4)"><g clip-path="url(#2668404f2c)"><path fill="#5cc5f8" d="M 3.816406 1.636719 C 4.9375 0.902344 8.074219 0.179688 11.824219 0.496094 C 21.527344 1.324219 24.148438 7.640625 22.640625 12.105469 C 22.402344 12.804688 25.886719 15.1875 27.6875 15.132812 C 27.859375 15.128906 27.921875 15.335938 27.746094 15.394531 C 24.824219 16.414062 20.507812 15.128906 20.363281 15.117188 C 19.609375 15.074219 15.398438 18.859375 6.558594 16.292969 C 2.640625 15.15625 0.078125 11.691406 0.308594 7.777344 C 0.445312 5.433594 1.539062 3.128906 3.816406 1.636719 " fill-opacity="1" fill-rule="nonzero"/></g></g></g></g></svg>