<svg xmlns="http://www.w3.org/2000/svg" xmlns:xlink="http://www.w3.org/1999/xlink" width="40" zoomAndPan="magnify" viewBox="0 0 30 30.000001" height="40" preserveAspectRatio="xMidYMid meet" version="1.0"><defs><clipPath id="8317d3a91b"><path d="M 4 0 L 28.605469 0 L 28.605469 28 L 4 28 Z M 4 0 " clip-rule="nonzero"/></clipPath><clipPath id="9b71a7b91b"><path d="M 1.75 0 L 8 0 L 8 10 L 1.75 10 Z M 1.75 0 " clip-rule="nonzero"/></clipPath><clipPath id="cd05c7efd1"><path d="M 1.75 0 L 9 0 L 9 11 L 1.75 11 Z M 1.75 0 " clip-rule="nonzero"/></clipPath></defs><g clip-path="url(#8317d3a91b)"><path fill="#f79745" d="M 12.105469 24.058594 C 10.964844 24.058594 10.042969 23.144531 10.042969 22.023438 C 10.042969 20.898438 10.964844 19.988281 12.105469 19.988281 C 13.242188 19.988281 14.167969 20.898438 14.167969 22.023438 C 14.167969 23.144531 13.242188 24.058594 12.105469 24.058594 Z M 28.265625 11.851562 C 27.757812 5.222656 22.136719 0 15.109375 0.902344 C 8.527344 1.75 4.199219 7.734375 4.199219 13.9375 C 4.199219 22.050781 10.652344 29.027344 15.160156 26.917969 C 18.738281 25.246094 13.605469 22.523438 16.941406 20.792969 C 18.875 19.789062 20.355469 22.550781 22.136719 22.300781 C 24.984375 21.898438 28.597656 16.144531 28.265625 11.851562 " fill-opacity="1" fill-rule="nonzero"/><path fill="#0f0a0a" d="M 12.105469 24.058594 L 12.105469 23.886719 C 11.582031 23.886719 11.113281 23.675781 10.769531 23.339844 C 10.425781 23 10.21875 22.539062 10.214844 22.023438 C 10.21875 21.507812 10.425781 21.042969 10.769531 20.707031 C 11.113281 20.367188 11.582031 20.160156 12.105469 20.160156 C 12.625 20.160156 13.097656 20.367188 13.4375 20.707031 C 13.78125 21.042969 13.992188 21.507812 13.992188 22.023438 C 13.992188 22.539062 13.78125 23 13.4375 23.339844 C 13.097656 23.675781 12.625 23.886719 12.105469 23.886719 L 12.105469 24.230469 C 13.339844 24.230469 14.339844 23.242188 14.339844 22.023438 C 14.339844 20.804688 13.339844 19.816406 12.105469 19.816406 C 10.871094 19.816406 9.867188 20.804688 9.867188 22.023438 C 9.867188 23.242188 10.871094 24.230469 12.105469 24.230469 Z M 28.265625 11.851562 L 28.441406 11.839844 C 28.203125 8.734375 26.855469 5.933594 24.773438 3.90625 C 22.691406 1.878906 19.867188 0.628906 16.683594 0.628906 C 16.160156 0.628906 15.628906 0.660156 15.085938 0.730469 C 11.746094 1.160156 8.976562 2.894531 7.050781 5.304688 C 5.121094 7.710938 4.027344 10.792969 4.027344 13.9375 C 4.027344 17.535156 5.28125 20.90625 7.074219 23.386719 C 7.972656 24.628906 9.007812 25.644531 10.09375 26.355469 C 11.179688 27.066406 12.320312 27.472656 13.429688 27.472656 C 14.050781 27.472656 14.65625 27.34375 15.234375 27.074219 C 15.761719 26.828125 16.121094 26.550781 16.351562 26.246094 C 16.582031 25.9375 16.667969 25.601562 16.667969 25.273438 C 16.667969 24.761719 16.472656 24.257812 16.285156 23.769531 C 16.101562 23.28125 15.925781 22.808594 15.929688 22.382812 C 15.929688 22.121094 15.988281 21.882812 16.152344 21.644531 C 16.316406 21.40625 16.585938 21.171875 17.023438 20.945312 C 17.300781 20.800781 17.558594 20.742188 17.8125 20.742188 C 18.136719 20.742188 18.460938 20.84375 18.789062 21 C 19.28125 21.234375 19.773438 21.597656 20.28125 21.910156 C 20.535156 22.066406 20.792969 22.207031 21.0625 22.3125 C 21.332031 22.417969 21.609375 22.488281 21.902344 22.488281 C 21.988281 22.488281 22.074219 22.480469 22.160156 22.46875 C 22.890625 22.363281 23.640625 21.941406 24.363281 21.3125 C 25.445312 20.371094 26.460938 18.953125 27.21875 17.367188 C 27.972656 15.78125 28.460938 14.027344 28.460938 12.414062 C 28.460938 12.21875 28.453125 12.027344 28.441406 11.839844 L 28.089844 11.863281 C 28.105469 12.042969 28.113281 12.226562 28.113281 12.414062 C 28.113281 14.476562 27.269531 16.828125 26.085938 18.703125 C 25.496094 19.640625 24.820312 20.457031 24.132812 21.054688 C 23.441406 21.660156 22.742188 22.039062 22.109375 22.128906 C 22.039062 22.136719 21.972656 22.144531 21.902344 22.144531 C 21.589844 22.144531 21.273438 22.046875 20.953125 21.886719 C 20.46875 21.652344 19.976562 21.289062 19.464844 20.976562 C 19.207031 20.820312 18.945312 20.675781 18.671875 20.570312 C 18.394531 20.464844 18.109375 20.398438 17.8125 20.398438 C 17.503906 20.398438 17.183594 20.472656 16.859375 20.640625 C 16.390625 20.882812 16.066406 21.15625 15.863281 21.453125 C 15.65625 21.75 15.578125 22.070312 15.578125 22.382812 C 15.578125 22.898438 15.777344 23.402344 15.960938 23.890625 C 16.144531 24.378906 16.320312 24.851562 16.320312 25.273438 C 16.320312 25.546875 16.253906 25.792969 16.070312 26.039062 C 15.886719 26.285156 15.578125 26.53125 15.085938 26.765625 C 14.554688 27.011719 14 27.128906 13.429688 27.128906 C 12.40625 27.128906 11.328125 26.753906 10.285156 26.070312 C 8.71875 25.046875 7.238281 23.332031 6.152344 21.214844 C 5.066406 19.097656 4.375 16.574219 4.375 13.9375 C 4.375 10.875 5.445312 7.863281 7.324219 5.515625 C 9.203125 3.171875 11.886719 1.488281 15.132812 1.074219 C 15.65625 1.003906 16.175781 0.972656 16.683594 0.972656 C 19.773438 0.972656 22.507812 2.183594 24.527344 4.152344 C 26.550781 6.117188 27.859375 8.84375 28.089844 11.863281 L 28.265625 11.851562 " fill-opacity="1" fill-rule="nonzero"/></g><path fill="#b26843" d="M 23.726562 17.832031 C 23.726562 19.183594 22.613281 20.277344 21.242188 20.277344 C 19.871094 20.277344 18.761719 19.183594 18.761719 17.832031 C 18.761719 16.476562 19.871094 15.382812 21.242188 15.382812 C 22.613281 15.382812 23.726562 16.476562 23.726562 17.832031 " fill-opacity="1" fill-rule="nonzero"/><path fill="#0f0a0a" d="M 23.726562 17.832031 L 23.550781 17.832031 C 23.550781 18.460938 23.292969 19.027344 22.875 19.441406 C 22.457031 19.851562 21.882812 20.105469 21.242188 20.105469 C 20.605469 20.105469 20.03125 19.851562 19.613281 19.441406 C 19.195312 19.027344 18.9375 18.460938 18.9375 17.832031 C 18.9375 17.199219 19.195312 16.632812 19.613281 16.21875 C 20.03125 15.808594 20.605469 15.554688 21.242188 15.554688 C 21.882812 15.554688 22.457031 15.808594 22.875 16.21875 C 23.292969 16.632812 23.550781 17.199219 23.550781 17.832031 L 23.898438 17.832031 C 23.898438 16.382812 22.710938 15.210938 21.242188 15.210938 C 19.777344 15.210938 18.585938 16.382812 18.585938 17.832031 C 18.585938 19.277344 19.777344 20.449219 21.242188 20.449219 C 22.710938 20.449219 23.898438 19.277344 23.898438 17.832031 L 23.726562 17.832031 " fill-opacity="1" fill-rule="nonzero"/><path fill="#b26843" d="M 26.207031 11.601562 C 26.207031 12.953125 25.097656 14.050781 23.726562 14.050781 C 22.355469 14.050781 21.242188 12.953125 21.242188 11.601562 C 21.242188 10.25 22.355469 9.152344 23.726562 9.152344 C 25.097656 9.152344 26.207031 10.25 26.207031 11.601562 " fill-opacity="1" fill-rule="nonzero"/><path fill="#0f0a0a" d="M 26.207031 11.601562 L 26.035156 11.601562 C 26.03125 12.230469 25.773438 12.796875 25.355469 13.210938 C 24.9375 13.621094 24.363281 13.875 23.726562 13.875 C 23.085938 13.875 22.511719 13.621094 22.09375 13.210938 C 21.675781 12.796875 21.417969 12.230469 21.417969 11.601562 C 21.417969 10.972656 21.675781 10.402344 22.09375 9.992188 C 22.511719 9.578125 23.085938 9.324219 23.726562 9.324219 C 24.363281 9.324219 24.9375 9.578125 25.355469 9.992188 C 25.773438 10.402344 26.03125 10.972656 26.035156 11.601562 L 26.382812 11.601562 C 26.382812 10.152344 25.191406 8.980469 23.726562 8.980469 C 22.257812 8.980469 21.070312 10.152344 21.066406 11.601562 C 21.070312 13.046875 22.257812 14.222656 23.726562 14.222656 C 25.191406 14.222656 26.382812 13.046875 26.382812 11.601562 L 26.207031 11.601562 " fill-opacity="1" fill-rule="nonzero"/><path fill="#b26843" d="M 21.703125 6.25 C 21.703125 7.605469 20.589844 8.699219 19.21875 8.699219 C 17.847656 8.699219 16.738281 7.605469 16.738281 6.25 C 16.738281 4.898438 17.847656 3.800781 19.21875 3.800781 C 20.589844 3.800781 21.703125 4.898438 21.703125 6.25 " fill-opacity="1" fill-rule="nonzero"/><path fill="#0f0a0a" d="M 21.703125 6.25 L 21.527344 6.25 C 21.527344 6.878906 21.269531 7.449219 20.851562 7.859375 C 20.433594 8.273438 19.855469 8.527344 19.21875 8.527344 C 18.582031 8.527344 18.007812 8.273438 17.589844 7.859375 C 17.167969 7.449219 16.910156 6.878906 16.910156 6.25 C 16.910156 5.621094 17.167969 5.054688 17.589844 4.640625 C 18.007812 4.230469 18.582031 3.976562 19.21875 3.976562 C 19.855469 3.976562 20.433594 4.230469 20.851562 4.640625 C 21.269531 5.054688 21.527344 5.621094 21.527344 6.25 L 21.875 6.25 C 21.875 4.804688 20.6875 3.628906 19.21875 3.628906 C 17.75 3.628906 16.5625 4.804688 16.5625 6.25 C 16.5625 7.699219 17.75 8.871094 19.21875 8.871094 C 20.6875 8.871094 21.875 7.699219 21.875 6.25 L 21.703125 6.25 " fill-opacity="1" fill-rule="nonzero"/><path fill="#b26843" d="M 15.210938 6.25 C 15.210938 7.605469 14.097656 8.699219 12.726562 8.699219 C 11.355469 8.699219 10.246094 7.605469 10.246094 6.25 C 10.246094 4.898438 11.355469 3.800781 12.726562 3.800781 C 14.097656 3.800781 15.210938 4.898438 15.210938 6.25 " fill-opacity="1" fill-rule="nonzero"/><path fill="#0f0a0a" d="M 15.210938 6.25 L 15.035156 6.25 C 15.035156 6.878906 14.777344 7.449219 14.359375 7.859375 C 13.941406 8.273438 13.367188 8.527344 12.726562 8.527344 C 12.089844 8.527344 11.515625 8.273438 11.097656 7.859375 C 10.679688 7.449219 10.421875 6.878906 10.421875 6.25 C 10.421875 5.621094 10.679688 5.054688 11.097656 4.640625 C 11.515625 4.230469 12.089844 3.976562 12.726562 3.976562 C 13.367188 3.976562 13.941406 4.230469 14.359375 4.640625 C 14.777344 5.054688 15.035156 5.621094 15.035156 6.25 L 15.382812 6.25 C 15.382812 4.804688 14.195312 3.628906 12.726562 3.628906 C 11.261719 3.628906 10.070312 4.804688 10.070312 6.25 C 10.070312 7.699219 11.261719 8.871094 12.726562 8.871094 C 14.195312 8.871094 15.382812 7.699219 15.382812 6.25 L 15.210938 6.25 " fill-opacity="1" fill-rule="nonzero"/><path fill="#64c9a1" d="M 24.054688 17.390625 C 24.054688 18.742188 22.945312 19.839844 21.574219 19.839844 C 20.203125 19.839844 19.09375 18.742188 19.09375 17.390625 C 19.09375 16.039062 20.203125 14.941406 21.574219 14.941406 C 22.945312 14.941406 24.054688 16.039062 24.054688 17.390625 " fill-opacity="1" fill-rule="nonzero"/><path fill="#000000" d="M 24.054688 17.390625 L 23.882812 17.390625 C 23.882812 18.019531 23.625 18.585938 23.207031 19 C 22.789062 19.410156 22.210938 19.667969 21.574219 19.667969 C 20.9375 19.667969 20.359375 19.410156 19.941406 19 C 19.523438 18.585938 19.265625 18.019531 19.265625 17.390625 C 19.265625 16.761719 19.523438 16.191406 19.941406 15.78125 C 20.359375 15.367188 20.9375 15.113281 21.574219 15.113281 C 22.210938 15.113281 22.789062 15.367188 23.207031 15.78125 C 23.625 16.191406 23.882812 16.761719 23.882812 17.390625 L 24.230469 17.390625 C 24.230469 15.941406 23.042969 14.769531 21.574219 14.769531 C 20.105469 14.769531 18.917969 15.941406 18.917969 17.390625 C 18.917969 18.835938 20.105469 20.011719 21.574219 20.011719 C 23.042969 20.011719 24.230469 18.835938 24.230469 17.390625 L 24.054688 17.390625 " fill-opacity="1" fill-rule="nonzero"/><path fill="#ee2a28" d="M 26.539062 11.160156 C 26.539062 12.511719 25.425781 13.609375 24.054688 13.609375 C 22.683594 13.609375 21.574219 12.511719 21.574219 11.160156 C 21.574219 9.808594 22.683594 8.710938 24.054688 8.710938 C 25.425781 8.710938 26.539062 9.808594 26.539062 11.160156 " fill-opacity="1" fill-rule="nonzero"/><path fill="#0f0a0a" d="M 26.539062 11.160156 L 26.363281 11.160156 C 26.363281 11.789062 26.105469 12.359375 25.6875 12.769531 C 25.269531 13.183594 24.695312 13.4375 24.054688 13.4375 C 23.417969 13.4375 22.84375 13.183594 22.425781 12.769531 C 22.007812 12.359375 21.75 11.789062 21.75 11.160156 C 21.75 10.53125 22.007812 9.964844 22.425781 9.550781 C 22.84375 9.140625 23.417969 8.882812 24.054688 8.882812 C 24.695312 8.882812 25.269531 9.140625 25.6875 9.550781 C 26.105469 9.964844 26.363281 10.53125 26.363281 11.160156 L 26.714844 11.160156 C 26.714844 9.714844 25.523438 8.539062 24.054688 8.539062 C 22.589844 8.539062 21.398438 9.714844 21.398438 11.160156 C 21.398438 12.609375 22.589844 13.78125 24.054688 13.78125 C 25.523438 13.78125 26.714844 12.609375 26.714844 11.160156 L 26.539062 11.160156 " fill-opacity="1" fill-rule="nonzero"/><path fill="#fbbf09" d="M 22.03125 5.8125 C 22.03125 7.164062 20.921875 8.261719 19.550781 8.261719 C 18.179688 8.261719 17.066406 7.164062 17.066406 5.8125 C 17.066406 4.460938 18.179688 3.363281 19.550781 3.363281 C 20.921875 3.363281 22.03125 4.460938 22.03125 5.8125 " fill-opacity="1" fill-rule="nonzero"/><path fill="#0f0a0a" d="M 22.03125 5.8125 L 21.859375 5.8125 C 21.859375 6.441406 21.601562 7.007812 21.183594 7.421875 C 20.765625 7.832031 20.1875 8.085938 19.550781 8.085938 C 18.914062 8.085938 18.335938 7.832031 17.917969 7.421875 C 17.5 7.007812 17.242188 6.441406 17.242188 5.8125 C 17.242188 5.183594 17.5 4.613281 17.917969 4.203125 C 18.335938 3.789062 18.914062 3.535156 19.550781 3.535156 C 20.1875 3.535156 20.765625 3.789062 21.183594 4.203125 C 21.601562 4.613281 21.859375 5.183594 21.859375 5.8125 L 22.207031 5.8125 C 22.207031 4.363281 21.019531 3.191406 19.550781 3.191406 C 18.082031 3.191406 16.894531 4.363281 16.894531 5.8125 C 16.894531 7.257812 18.082031 8.433594 19.550781 8.433594 C 21.015625 8.433594 22.207031 7.257812 22.207031 5.8125 L 22.03125 5.8125 " fill-opacity="1" fill-rule="nonzero"/><path fill="#42a3ab" d="M 15.539062 5.8125 C 15.539062 7.164062 14.429688 8.261719 13.058594 8.261719 C 11.6875 8.261719 10.578125 7.164062 10.578125 5.8125 C 10.578125 4.460938 11.6875 3.363281 13.058594 3.363281 C 14.429688 3.363281 15.539062 4.460938 15.539062 5.8125 " fill-opacity="1" fill-rule="nonzero"/><path fill="#0f0a0a" d="M 15.539062 5.8125 L 15.367188 5.8125 C 15.367188 6.441406 15.109375 7.007812 14.691406 7.421875 C 14.273438 7.832031 13.695312 8.085938 13.058594 8.085938 C 12.421875 8.085938 11.84375 7.832031 11.425781 7.421875 C 11.007812 7.007812 10.75 6.441406 10.75 5.8125 C 10.75 5.183594 11.007812 4.613281 11.425781 4.203125 C 11.84375 3.789062 12.421875 3.535156 13.058594 3.535156 C 13.695312 3.535156 14.273438 3.789062 14.691406 4.203125 C 15.109375 4.613281 15.367188 5.183594 15.367188 5.8125 L 15.714844 5.8125 C 15.714844 4.363281 14.527344 3.191406 13.058594 3.191406 C 11.589844 3.191406 10.402344 4.363281 10.402344 5.8125 C 10.402344 7.257812 11.589844 8.433594 13.058594 8.433594 C 14.527344 8.433594 15.714844 7.257812 15.714844 5.8125 L 15.539062 5.8125 " fill-opacity="1" fill-rule="nonzero"/><path fill="#b26843" d="M 10.246094 11.160156 C 10.246094 12.511719 9.132812 13.609375 7.765625 13.609375 C 6.394531 13.609375 5.28125 12.511719 5.28125 11.160156 C 5.28125 9.808594 6.394531 8.710938 7.765625 8.710938 C 9.132812 8.710938 10.246094 9.808594 10.246094 11.160156 " fill-opacity="1" fill-rule="nonzero"/><path fill="#0f0a0a" d="M 10.246094 11.160156 L 10.070312 11.160156 C 10.070312 11.789062 9.8125 12.359375 9.394531 12.769531 C 8.976562 13.183594 8.402344 13.4375 7.765625 13.4375 C 7.125 13.4375 6.550781 13.183594 6.132812 12.769531 C 5.714844 12.359375 5.457031 11.789062 5.457031 11.160156 C 5.457031 10.53125 5.714844 9.964844 6.132812 9.550781 C 6.550781 9.140625 7.125 8.882812 7.765625 8.882812 C 8.402344 8.882812 8.976562 9.140625 9.394531 9.550781 C 9.8125 9.964844 10.070312 10.53125 10.070312 11.160156 L 10.421875 11.160156 C 10.421875 9.714844 9.230469 8.539062 7.765625 8.539062 C 6.296875 8.539062 5.105469 9.714844 5.105469 11.160156 C 5.105469 12.609375 6.296875 13.78125 7.765625 13.78125 C 9.230469 13.78125 10.421875 12.609375 10.421875 11.160156 L 10.246094 11.160156 " fill-opacity="1" fill-rule="nonzero"/><path fill="#9841a6" d="M 10.578125 10.71875 C 10.578125 12.074219 9.464844 13.167969 8.09375 13.167969 C 6.722656 13.167969 5.613281 12.074219 5.613281 10.71875 C 5.613281 9.367188 6.722656 8.273438 8.09375 8.273438 C 9.464844 8.273438 10.578125 9.367188 10.578125 10.71875 " fill-opacity="1" fill-rule="nonzero"/><path fill="#0f0a0a" d="M 10.578125 10.71875 L 10.402344 10.71875 C 10.402344 11.347656 10.144531 11.917969 9.726562 12.328125 C 9.308594 12.742188 8.730469 12.996094 8.09375 12.996094 C 7.457031 12.996094 6.882812 12.742188 6.460938 12.328125 C 6.046875 11.917969 5.785156 11.347656 5.785156 10.71875 C 5.785156 10.089844 6.046875 9.523438 6.460938 9.109375 C 6.882812 8.699219 7.457031 8.445312 8.09375 8.445312 C 8.730469 8.445312 9.308594 8.699219 9.726562 9.109375 C 10.144531 9.523438 10.402344 10.089844 10.402344 10.71875 L 10.75 10.71875 C 10.75 9.273438 9.5625 8.097656 8.09375 8.097656 C 6.625 8.097656 5.4375 9.273438 5.4375 10.71875 C 5.4375 12.167969 6.625 13.339844 8.09375 13.339844 C 9.5625 13.339844 10.75 12.167969 10.75 10.71875 L 10.578125 10.71875 " fill-opacity="1" fill-rule="nonzero"/><g clip-path="url(#9b71a7b91b)"><path fill="#ffffff" d="M 7.902344 6.636719 C 8.054688 8.191406 7.097656 9.636719 5.535156 9.890625 C 3.96875 10.140625 2.742188 9.035156 2.238281 7.550781 C 1.773438 6.191406 1.851562 4.414062 2.492188 2.863281 C 2.492188 2.863281 2.648438 3.800781 2.925781 4.445312 C 2.894531 2.402344 3.984375 0.570312 3.984375 0.570312 C 3.984375 0.570312 5.957031 3.207031 6.5 5.136719 C 6.808594 4.300781 5.953125 2.679688 5.953125 2.679688 C 5.953125 2.679688 7.648438 4.027344 7.902344 6.636719 " fill-opacity="1" fill-rule="nonzero"/></g><g clip-path="url(#cd05c7efd1)"><path fill="#0f0a0a" d="M 7.902344 6.636719 L 7.730469 6.652344 C 7.738281 6.753906 7.746094 6.859375 7.746094 6.960938 C 7.746094 7.636719 7.523438 8.273438 7.136719 8.765625 C 6.746094 9.257812 6.191406 9.609375 5.503906 9.71875 C 5.363281 9.742188 5.226562 9.753906 5.09375 9.753906 C 4.460938 9.753906 3.90625 9.515625 3.445312 9.113281 C 2.984375 8.710938 2.621094 8.140625 2.402344 7.496094 C 2.210938 6.941406 2.117188 6.308594 2.117188 5.648438 C 2.113281 4.75 2.292969 3.800781 2.652344 2.929688 L 2.492188 2.863281 L 2.320312 2.890625 C 2.320312 2.894531 2.359375 3.128906 2.433594 3.449219 C 2.507812 3.769531 2.617188 4.171875 2.761719 4.511719 L 3.109375 5.328125 L 3.097656 4.445312 C 3.097656 4.417969 3.097656 4.394531 3.097656 4.371094 C 3.097656 3.390625 3.355469 2.460938 3.617188 1.777344 C 3.75 1.433594 3.878906 1.152344 3.976562 0.957031 C 4.023438 0.859375 4.066406 0.785156 4.09375 0.734375 C 4.109375 0.707031 4.117188 0.691406 4.125 0.675781 L 4.132812 0.664062 L 4.136719 0.660156 L 3.984375 0.570312 L 3.84375 0.671875 C 3.84375 0.671875 3.851562 0.683594 3.867188 0.703125 C 3.972656 0.847656 4.46875 1.527344 4.996094 2.390625 C 5.523438 3.253906 6.085938 4.308594 6.328125 5.183594 L 6.476562 5.699219 L 6.664062 5.195312 C 6.71875 5.042969 6.742188 4.875 6.742188 4.703125 C 6.742188 4.46875 6.699219 4.222656 6.640625 3.984375 C 6.460938 3.265625 6.109375 2.605469 6.105469 2.601562 L 5.953125 2.679688 L 5.839844 2.8125 L 5.917969 2.71875 L 5.839844 2.8125 L 5.917969 2.71875 L 5.839844 2.8125 L 5.84375 2.816406 C 5.890625 2.855469 6.304688 3.203125 6.734375 3.84375 C 7.164062 4.488281 7.609375 5.425781 7.730469 6.652344 L 7.902344 6.636719 L 8.078125 6.617188 C 7.945312 5.28125 7.445312 4.265625 6.976562 3.582031 C 6.507812 2.902344 6.070312 2.554688 6.0625 2.546875 L 5.410156 2.027344 L 5.796875 2.757812 L 5.796875 2.761719 C 5.8125 2.792969 5.964844 3.082031 6.109375 3.464844 C 6.183594 3.65625 6.253906 3.871094 6.304688 4.085938 C 6.359375 4.300781 6.390625 4.515625 6.390625 4.703125 C 6.390625 4.847656 6.375 4.972656 6.335938 5.078125 L 6.5 5.136719 L 6.667969 5.089844 C 6.527344 4.59375 6.296875 4.058594 6.035156 3.535156 C 5.242188 1.960938 4.128906 0.472656 4.125 0.46875 L 3.96875 0.257812 L 3.835938 0.484375 C 3.832031 0.488281 3.5625 0.945312 3.292969 1.65625 C 3.019531 2.363281 2.75 3.332031 2.75 4.371094 C 2.75 4.394531 2.75 4.421875 2.75 4.449219 L 2.925781 4.445312 L 3.085938 4.378906 C 2.953125 4.070312 2.847656 3.683594 2.773438 3.375 C 2.738281 3.21875 2.710938 3.082031 2.691406 2.988281 C 2.683594 2.9375 2.675781 2.902344 2.671875 2.875 C 2.667969 2.863281 2.667969 2.851562 2.664062 2.84375 L 2.664062 2.835938 L 2.5625 2.230469 L 2.328125 2.796875 C 1.953125 3.714844 1.765625 4.703125 1.765625 5.648438 C 1.765625 6.339844 1.867188 7.011719 2.070312 7.605469 C 2.308594 8.300781 2.699219 8.917969 3.210938 9.371094 C 3.726562 9.820312 4.371094 10.097656 5.09375 10.097656 C 5.246094 10.097656 5.402344 10.085938 5.5625 10.058594 C 6.335938 9.933594 6.972656 9.535156 7.410156 8.976562 C 7.851562 8.421875 8.09375 7.710938 8.09375 6.960938 C 8.09375 6.847656 8.089844 6.734375 8.078125 6.617188 L 7.902344 6.636719 " fill-opacity="1" fill-rule="nonzero"/></g><path fill="#f79745" d="M 9.398438 26.757812 C 9.484375 28.210938 7.964844 28.457031 7.578125 27.054688 C 7.121094 25.074219 5.066406 17.261719 4.609375 14.207031 C 4.15625 11.152344 7.175781 10.507812 7.792969 13.660156 C 8.433594 16.9375 9.234375 24.839844 9.398438 26.757812 " fill-opacity="1" fill-rule="nonzero"/><path fill="#0f0a0a" d="M 9.398438 26.757812 L 9.222656 26.769531 C 9.226562 26.804688 9.226562 26.839844 9.226562 26.875 C 9.226562 27.203125 9.132812 27.441406 9.007812 27.59375 C 8.878906 27.742188 8.714844 27.816406 8.546875 27.816406 C 8.402344 27.816406 8.246094 27.757812 8.101562 27.632812 C 7.957031 27.503906 7.828125 27.300781 7.746094 27.007812 L 7.578125 27.054688 L 7.746094 27.015625 C 7.519531 26.023438 6.890625 23.574219 6.261719 20.992188 C 5.949219 19.703125 5.636719 18.378906 5.371094 17.1875 C 5.109375 15.996094 4.894531 14.9375 4.785156 14.183594 C 4.753906 13.976562 4.738281 13.785156 4.738281 13.605469 C 4.738281 12.988281 4.90625 12.519531 5.148438 12.214844 C 5.390625 11.910156 5.703125 11.757812 6.023438 11.757812 C 6.328125 11.757812 6.65625 11.894531 6.945312 12.203125 C 7.234375 12.515625 7.488281 13.003906 7.621094 13.691406 C 7.941406 15.320312 8.300781 18.113281 8.601562 20.738281 C 8.902344 23.359375 9.144531 25.816406 9.226562 26.773438 L 9.398438 26.757812 L 9.222656 26.769531 L 9.574219 26.746094 C 9.492188 25.78125 9.25 23.324219 8.949219 20.699219 C 8.648438 18.070312 8.285156 15.277344 7.964844 13.625 C 7.820312 12.890625 7.546875 12.339844 7.203125 11.972656 C 6.859375 11.601562 6.4375 11.414062 6.023438 11.414062 C 5.585938 11.414062 5.167969 11.625 4.871094 12.003906 C 4.574219 12.382812 4.390625 12.925781 4.390625 13.605469 C 4.390625 13.804688 4.40625 14.011719 4.4375 14.230469 C 4.554688 15.003906 4.769531 16.066406 5.03125 17.261719 C 5.429688 19.054688 5.9375 21.140625 6.386719 22.964844 C 6.839844 24.789062 7.238281 26.355469 7.40625 27.09375 L 7.410156 27.097656 C 7.503906 27.441406 7.664062 27.707031 7.867188 27.886719 C 8.066406 28.066406 8.308594 28.160156 8.546875 28.160156 C 8.820312 28.160156 9.085938 28.035156 9.273438 27.8125 C 9.464844 27.585938 9.578125 27.269531 9.578125 26.875 C 9.578125 26.835938 9.574219 26.792969 9.574219 26.75 L 9.574219 26.746094 L 9.398438 26.757812 " fill-opacity="1" fill-rule="nonzero"/><path fill="#bdbcbc" d="M 7.480469 12.375 L 4.496094 12.859375 L 3.980469 9.765625 L 6.96875 9.28125 L 7.480469 12.375 " fill-opacity="1" fill-rule="nonzero"/><path fill="#0f0a0a" d="M 7.480469 12.375 L 7.453125 12.207031 L 4.636719 12.660156 L 4.179688 9.90625 L 6.824219 9.480469 L 7.308594 12.402344 L 7.480469 12.375 L 7.453125 12.207031 L 7.480469 12.375 L 7.65625 12.347656 L 7.113281 9.082031 L 3.78125 9.621094 L 4.351562 13.058594 L 7.683594 12.519531 L 7.65625 12.347656 L 7.480469 12.375 " fill-opacity="1" fill-rule="nonzero"/><path fill="#0f0a0a" d="M 5.441406 9.527344 L 4.761719 4.375 L 5.785156 9.472656 Z M 5.441406 9.527344 " fill-opacity="1" fill-rule="nonzero"/><path fill="#0f0a0a" d="M 4.023438 9.839844 C 4.023438 9.839844 3.984375 9.78125 3.914062 9.683594 C 3.882812 9.632812 3.835938 9.578125 3.792969 9.503906 C 3.746094 9.429688 3.695312 9.347656 3.640625 9.253906 C 3.585938 9.164062 3.539062 9.0625 3.484375 8.957031 C 3.425781 8.851562 3.378906 8.734375 3.324219 8.613281 C 3.269531 8.496094 3.226562 8.371094 3.175781 8.242188 C 3.125 8.117188 3.085938 7.984375 3.042969 7.855469 C 3 7.722656 2.960938 7.59375 2.925781 7.460938 C 2.890625 7.332031 2.855469 7.203125 2.828125 7.078125 C 2.765625 6.828125 2.722656 6.59375 2.6875 6.390625 C 2.617188 5.988281 2.59375 5.71875 2.59375 5.71875 C 2.59375 5.71875 2.640625 5.984375 2.742188 6.382812 C 2.792969 6.578125 2.855469 6.808594 2.933594 7.050781 C 2.96875 7.171875 3.019531 7.292969 3.0625 7.421875 C 3.105469 7.546875 3.15625 7.671875 3.207031 7.796875 C 3.261719 7.921875 3.308594 8.046875 3.367188 8.164062 C 3.425781 8.285156 3.476562 8.40625 3.542969 8.515625 C 3.601562 8.625 3.65625 8.734375 3.71875 8.828125 C 3.78125 8.925781 3.832031 9.023438 3.890625 9.101562 C 3.949219 9.183594 4 9.253906 4.046875 9.320312 C 4.09375 9.382812 4.144531 9.441406 4.179688 9.484375 C 4.257812 9.578125 4.300781 9.628906 4.300781 9.628906 L 4.023438 9.839844 " fill-opacity="1" fill-rule="nonzero"/><path fill="#0f0a0a" d="M 4.902344 9.695312 C 4.902344 9.695312 4.886719 9.675781 4.859375 9.636719 C 4.832031 9.59375 4.785156 9.542969 4.734375 9.460938 C 4.679688 9.378906 4.613281 9.277344 4.550781 9.164062 C 4.484375 9.050781 4.417969 8.914062 4.347656 8.769531 C 4.316406 8.695312 4.28125 8.621094 4.246094 8.539062 C 4.214844 8.457031 4.183594 8.375 4.148438 8.289062 C 4.117188 8.203125 4.089844 8.113281 4.054688 8.023438 C 4.027344 7.929688 4 7.835938 3.96875 7.742188 C 3.917969 7.550781 3.863281 7.351562 3.820312 7.148438 C 3.777344 6.945312 3.734375 6.734375 3.703125 6.527344 C 3.5625 5.695312 3.515625 4.851562 3.507812 4.222656 C 3.496094 3.59375 3.523438 3.175781 3.523438 3.175781 C 3.523438 3.175781 3.519531 3.59375 3.558594 4.222656 C 3.601562 4.847656 3.695312 5.679688 3.875 6.496094 C 3.917969 6.699219 3.96875 6.902344 4.023438 7.097656 C 4.074219 7.296875 4.136719 7.488281 4.199219 7.671875 C 4.230469 7.761719 4.265625 7.851562 4.296875 7.941406 C 4.332031 8.027344 4.363281 8.109375 4.398438 8.191406 C 4.433594 8.273438 4.46875 8.351562 4.503906 8.429688 C 4.542969 8.503906 4.578125 8.574219 4.613281 8.644531 C 4.6875 8.777344 4.753906 8.898438 4.824219 9.003906 C 4.886719 9.109375 4.953125 9.191406 5.003906 9.265625 C 5.054688 9.335938 5.105469 9.390625 5.132812 9.429688 C 5.164062 9.46875 5.179688 9.488281 5.179688 9.488281 L 4.902344 9.695312 " fill-opacity="1" fill-rule="nonzero"/><path fill="#0f0a0a" d="M 6.515625 9.257812 C 6.515625 9.257812 6.542969 9.199219 6.597656 9.089844 C 6.625 9.035156 6.660156 8.964844 6.691406 8.890625 C 6.722656 8.816406 6.753906 8.730469 6.789062 8.640625 C 6.828125 8.546875 6.855469 8.4375 6.894531 8.328125 C 6.929688 8.21875 6.957031 8.097656 6.988281 7.972656 C 7.023438 7.851562 7.042969 7.71875 7.066406 7.585938 C 7.09375 7.457031 7.109375 7.320312 7.128906 7.183594 C 7.148438 7.046875 7.160156 6.910156 7.171875 6.773438 C 7.179688 6.640625 7.191406 6.507812 7.195312 6.378906 C 7.207031 6.117188 7.203125 5.878906 7.199219 5.671875 C 7.1875 5.253906 7.152344 4.980469 7.152344 4.980469 C 7.152344 4.980469 7.210938 5.25 7.253906 5.667969 C 7.273438 5.875 7.296875 6.117188 7.304688 6.378906 C 7.3125 6.507812 7.3125 6.644531 7.3125 6.78125 C 7.3125 6.917969 7.308594 7.058594 7.304688 7.199219 C 7.292969 7.335938 7.289062 7.476562 7.273438 7.613281 C 7.257812 7.753906 7.246094 7.886719 7.222656 8.019531 C 7.199219 8.148438 7.183594 8.277344 7.152344 8.394531 C 7.125 8.511719 7.105469 8.625 7.070312 8.730469 C 7.039062 8.832031 7.007812 8.929688 6.984375 9.015625 C 6.957031 9.097656 6.925781 9.164062 6.90625 9.21875 C 6.859375 9.332031 6.835938 9.398438 6.835938 9.398438 L 6.515625 9.257812 " fill-opacity="1" fill-rule="nonzero"/><path fill="#0f0a0a" d="M 5.921875 9.367188 C 5.921875 9.367188 5.929688 9.34375 5.949219 9.300781 C 5.960938 9.253906 5.992188 9.1875 6.015625 9.105469 C 6.039062 9.023438 6.074219 8.929688 6.097656 8.808594 C 6.125 8.691406 6.144531 8.554688 6.167969 8.40625 C 6.175781 8.332031 6.183594 8.253906 6.191406 8.171875 C 6.195312 8.09375 6.203125 8.007812 6.207031 7.921875 C 6.207031 7.835938 6.207031 7.746094 6.210938 7.65625 C 6.207031 7.5625 6.203125 7.46875 6.199219 7.375 C 6.1875 7.1875 6.171875 6.988281 6.144531 6.789062 C 6.121094 6.589844 6.089844 6.390625 6.050781 6.1875 C 5.898438 5.382812 5.644531 4.597656 5.425781 4.019531 C 5.210938 3.441406 5.03125 3.066406 5.03125 3.066406 C 5.03125 3.066406 5.230469 3.429688 5.476562 4 C 5.726562 4.566406 6.023438 5.34375 6.21875 6.152344 C 6.269531 6.355469 6.3125 6.558594 6.351562 6.761719 C 6.386719 6.960938 6.414062 7.160156 6.4375 7.355469 C 6.445312 7.457031 6.453125 7.550781 6.460938 7.644531 C 6.464844 7.742188 6.46875 7.832031 6.472656 7.921875 C 6.472656 8.015625 6.472656 8.101562 6.472656 8.1875 C 6.46875 8.273438 6.464844 8.355469 6.460938 8.433594 C 6.445312 8.59375 6.433594 8.738281 6.40625 8.867188 C 6.390625 8.996094 6.355469 9.109375 6.335938 9.203125 C 6.3125 9.296875 6.289062 9.359375 6.273438 9.40625 C 6.261719 9.453125 6.253906 9.476562 6.253906 9.476562 L 5.921875 9.367188 " fill-opacity="1" fill-rule="nonzero"/></svg>