<svg xmlns="http://www.w3.org/2000/svg" xmlns:xlink="http://www.w3.org/1999/xlink" width="40" zoomAndPan="magnify" viewBox="0 0 30 30.000001" height="40" preserveAspectRatio="xMidYMid meet" version="1.0"><defs><clipPath id="6c6b092c3d"><path d="M 1 2.101562 L 29 2.101562 L 29 26.78125 L 1 26.78125 Z M 1 2.101562 " clip-rule="nonzero"/></clipPath><clipPath id="8752bc83f8"><path d="M 1 5 L 13 5 L 13 26.78125 L 1 26.78125 Z M 1 5 " clip-rule="nonzero"/></clipPath><clipPath id="729c0453e2"><path d="M 25 5 L 29.171875 5 L 29.171875 12 L 25 12 Z M 25 5 " clip-rule="nonzero"/></clipPath><clipPath id="311e0e1f2b"><path d="M 4 4 L 29.171875 4 L 29.171875 26.78125 L 4 26.78125 Z M 4 4 " clip-rule="nonzero"/></clipPath><clipPath id="f842bf330f"><path d="M 4 2.101562 L 10 2.101562 L 10 6 L 4 6 Z M 4 2.101562 " clip-rule="nonzero"/></clipPath><clipPath id="7f648b8e25"><path d="M 0.867188 5 L 4 5 L 4 7 L 0.867188 7 Z M 0.867188 5 " clip-rule="nonzero"/></clipPath></defs><g clip-path="url(#6c6b092c3d)"><path fill="#bc8a42" d="M 1.320312 6.972656 C 1.148438 6.414062 0.902344 5.65625 1.320312 5.3125 C 1.738281 4.972656 3.902344 5.289062 3.902344 5.289062 C 3.902344 5.289062 4.347656 4.679688 4.566406 4.335938 C 4.789062 3.996094 5.40625 3.503906 5.945312 3.503906 C 6.191406 3.480469 6.289062 2.332031 6.289062 2.332031 L 7.175781 3.480469 L 8.359375 2.503906 C 8.359375 2.503906 8.75 2.1875 8.800781 2.382812 C 8.851562 2.578125 8.996094 3.824219 8.996094 3.824219 L 8.898438 4.359375 C 8.898438 4.359375 9.441406 5.070312 10.328125 5.972656 C 11.210938 6.875 13.007812 9.488281 13.007812 9.488281 C 13.007812 9.488281 16.160156 9.097656 17.511719 8.902344 C 18.867188 8.707031 19.898438 8.34375 21.203125 8.734375 L 21.867188 8.855469 C 21.867188 8.855469 21.449219 7.949219 21.621094 6.925781 C 21.796875 5.898438 22.902344 4.800781 24.476562 4.703125 C 26.050781 4.605469 29.25 5.582031 28.980469 9.34375 C 28.585938 11.882812 26.078125 11.6875 26.078125 11.6875 C 26.078125 11.6875 27.355469 13.617188 27.136719 15.695312 C 26.914062 17.769531 26.296875 21.996094 26.226562 23.214844 C 26.152344 24.4375 26.003906 24.902344 25.488281 24.925781 C 24.96875 24.949219 24.796875 24.828125 24.871094 24.488281 C 24.945312 24.144531 25.289062 21.847656 25.289062 21.847656 C 25.289062 21.847656 23.765625 20.164062 23.417969 20.015625 C 23.199219 21.042969 21.96875 24.339844 21.597656 24.609375 C 21.230469 24.878906 21.277344 24.949219 20.984375 24.925781 C 20.6875 24.902344 20.984375 24.558594 21.058594 24.21875 C 21.128906 23.875 21.671875 21.75 21.671875 20.773438 C 21.671875 19.796875 21.894531 18.625 21.894531 18.625 C 21.894531 18.625 20.464844 16.964844 20.246094 15.988281 C 19.480469 16.621094 18.203125 18.234375 17.5625 18.601562 C 16.921875 18.964844 15.519531 19.699219 13.058594 19.1875 C 12.761719 21.972656 12.789062 24.707031 12.6875 25.390625 C 12.589844 26.074219 12.738281 26.539062 12.125 26.585938 C 11.828125 26.5625 11.828125 26.074219 11.582031 24.878906 C 11.335938 23.679688 10.867188 21.066406 10.402344 20.480469 C 9.933594 19.894531 9.613281 19.699219 9.613281 19.699219 C 9.613281 19.699219 8.359375 23.3125 8.113281 23.898438 C 7.867188 24.488281 7.867188 25.023438 7.226562 25.097656 C 6.585938 25.171875 6.683594 25.269531 6.90625 24.804688 C 7.128906 24.339844 7.472656 23.730469 7.546875 23.289062 C 7.621094 22.851562 7.792969 17.207031 7.792969 17.207031 C 7.792969 17.207031 7.078125 15.449219 7.054688 15.328125 C 7.027344 15.207031 6.144531 13.496094 5.773438 12.714844 C 5.40625 11.933594 4.839844 10.34375 4.765625 9.929688 C 4.691406 9.515625 4.496094 9.390625 4.394531 9.417969 C 4.296875 9.441406 3.335938 9.710938 3.289062 9.441406 C 3.238281 9.171875 3.828125 8.21875 3.828125 8.21875 C 3.828125 8.21875 2.425781 8.046875 1.960938 7.828125 C 1.492188 7.609375 1.320312 6.972656 1.320312 6.972656 Z M 1.320312 6.972656 " fill-opacity="1" fill-rule="nonzero"/></g><g clip-path="url(#8752bc83f8)"><path fill="#ffffff" d="M 1.234375 5.933594 C 1.484375 6.195312 2.8125 6.867188 3.792969 6.90625 C 4.769531 6.941406 5.183594 6.269531 5.746094 6.121094 C 6.3125 5.972656 7.324219 5.933594 7.625 6.71875 C 7.925781 7.503906 7.851562 8.996094 6.535156 9.40625 C 7.4375 11.160156 7.890625 14.03125 8.792969 15.824219 C 9.695312 17.613281 10.371094 18.324219 11.347656 21.011719 C 12.328125 23.695312 12.488281 26.210938 12.144531 26.445312 C 11.867188 26.035156 11.855469 26.101562 11.855469 26.101562 C 11.855469 26.101562 11.371094 23.839844 10.847656 21.855469 C 10.320312 19.867188 10.210938 20.347656 10.210938 20.347656 L 8.898438 18.648438 C 8.898438 18.648438 7.417969 16.433594 7.054688 15.328125 C 6.691406 14.222656 5.296875 12.386719 5.128906 11.289062 C 4.964844 10.195312 4.714844 9.757812 4.714844 9.757812 C 4.714844 9.757812 4.710938 9.445312 4.394531 9.417969 C 4.082031 9.386719 3.289062 9.441406 3.289062 9.441406 L 3.828125 8.21875 C 3.828125 8.21875 2.921875 8.195312 2.410156 7.988281 C 1.898438 7.78125 1.25 7.003906 1.238281 6.808594 C 1.222656 6.617188 0.941406 6.292969 1.234375 5.933594 Z M 1.234375 5.933594 " fill-opacity="1" fill-rule="nonzero"/></g><path fill="#ffffff" d="M 8.742188 18.617188 C 8.582031 19.722656 8.105469 23.878906 7.867188 24.449219 C 8.628906 22.554688 9.613281 19.699219 9.613281 19.699219 Z M 8.742188 18.617188 " fill-opacity="1" fill-rule="nonzero"/><path fill="#ffffff" d="M 13.589844 15.933594 C 13.589844 15.933594 14.707031 15.914062 15.714844 15.328125 C 16.726562 14.738281 20.140625 13.859375 22.457031 14.375 C 21.605469 15.585938 23.34375 17.851562 24.09375 18.714844 C 24.84375 19.578125 25.941406 21.050781 25.730469 22.882812 C 25.523438 24.714844 25.226562 24.957031 25.226562 24.957031 L 24.914062 24.75 L 25.289062 21.847656 L 23.417969 20.015625 L 22.683594 22.257812 C 22.683594 22.257812 21.933594 24.179688 21.691406 24.488281 C 21.445312 24.800781 21.253906 24.871094 21.253906 24.871094 C 21.253906 24.871094 21.863281 23.125 22.054688 22.3125 C 22.25 21.5 22.613281 19.234375 22.613281 19.234375 C 22.613281 19.234375 21.515625 18.058594 21.480469 18.007812 C 21.445312 17.953125 20.246094 15.988281 20.246094 15.988281 C 20.246094 15.988281 19.914062 16.207031 19.339844 16.8125 C 18.765625 17.417969 17.910156 18.800781 16.5 19.113281 C 15.089844 19.425781 13.625 19.398438 13.058594 19.1875 C 13.3125 17.679688 13.589844 15.933594 13.589844 15.933594 " fill-opacity="1" fill-rule="nonzero"/><g clip-path="url(#729c0453e2)"><path fill="#ffffff" d="M 25.617188 11.183594 C 26.695312 11.078125 27.753906 10.757812 27.808594 8.691406 C 27.863281 6.625 27.414062 6.410156 26.964844 5.269531 C 28.582031 6.445312 29.351562 7.886719 28.921875 9.472656 C 28.492188 11.058594 27.808594 11.378906 27.34375 11.523438 C 26.875 11.664062 26.230469 11.753906 26.230469 11.753906 L 25.617188 11.183594 " fill-opacity="1" fill-rule="nonzero"/></g><path fill="#ffffff" d="M 5.269531 4.707031 C 5.03125 4.886719 4.78125 4.878906 4.679688 4.792969 C 4.574219 4.707031 4.550781 4.589844 4.667969 4.425781 C 4.789062 4.265625 5.242188 4.179688 5.363281 4.324219 C 5.484375 4.46875 5.269531 4.707031 5.269531 4.707031 Z M 5.269531 4.707031 " fill-opacity="1" fill-rule="nonzero"/><g clip-path="url(#311e0e1f2b)"><path fill="#000000" d="M 4.597656 9.523438 C 4.703125 9.601562 4.875 9.660156 4.902344 9.757812 C 5.265625 11.195312 5.898438 12.511719 6.648438 13.785156 C 6.941406 14.285156 7.070312 14.878906 7.289062 15.421875 C 7.984375 17.160156 9.054688 18.660156 10.28125 20.0625 C 10.488281 20.300781 10.679688 20.554688 10.921875 20.855469 C 10.773438 20.871094 10.714844 20.878906 10.742188 20.875 C 11.207031 22.667969 11.675781 24.472656 12.152344 26.300781 C 12.414062 26.347656 12.535156 26.222656 12.539062 25.917969 C 12.550781 25.304688 12.621094 24.6875 12.601562 24.074219 C 12.519531 21.359375 13.007812 18.703125 13.464844 16.042969 C 13.480469 15.933594 13.539062 15.828125 13.578125 15.722656 C 13.628906 15.734375 13.675781 15.742188 13.726562 15.753906 C 13.578125 16.832031 13.429688 17.910156 13.28125 19.007812 C 13.898438 19.320312 14.546875 19.195312 15.179688 19.132812 C 15.515625 19.101562 15.84375 19.007812 16.175781 18.953125 C 17.371094 18.765625 18.175781 18.054688 18.890625 17.125 C 19.40625 16.457031 20.089844 15.917969 20.710938 15.335938 C 20.8125 15.242188 20.988281 15.222656 21.132812 15.167969 C 21.160156 15.214844 21.191406 15.265625 21.222656 15.3125 C 21.074219 15.4375 20.945312 15.589844 20.777344 15.683594 C 20.488281 15.84375 20.457031 16.003906 20.589844 16.320312 C 21.199219 17.765625 22.34375 18.765625 23.457031 19.796875 C 24.035156 20.328125 24.613281 20.863281 25.152344 21.433594 C 25.320312 21.609375 25.460938 21.898438 25.464844 22.136719 C 25.476562 22.777344 25.429688 23.421875 25.363281 24.0625 C 25.335938 24.296875 25.179688 24.519531 25.082031 24.761719 C 25.480469 24.835938 25.761719 24.757812 25.839844 24.300781 C 26.015625 23.269531 26.210938 22.242188 26.386719 21.210938 C 26.453125 20.828125 26.523438 20.441406 26.546875 20.050781 C 26.648438 18.300781 26.765625 16.546875 26.816406 14.792969 C 26.855469 13.488281 26.386719 12.332031 25.574219 11.308594 C 25.515625 11.230469 25.464844 11.144531 25.414062 11.0625 C 25.410156 11.058594 25.425781 11.042969 25.453125 11 C 25.550781 11.066406 25.675781 11.113281 25.738281 11.203125 C 26.113281 11.71875 26.601562 11.601562 27.0625 11.421875 C 28.023438 11.054688 28.550781 10.316406 28.761719 9.332031 C 29.246094 7.089844 27.53125 5.285156 25.71875 4.894531 C 24.339844 4.601562 23.101562 4.792969 22.21875 6.027344 C 21.789062 6.632812 21.691406 7.308594 21.761719 8.027344 C 21.777344 8.207031 21.792969 8.386719 21.808594 8.578125 C 22.269531 8.828125 22.757812 9.074219 23.222656 9.351562 C 23.695312 9.636719 24.09375 9.996094 24.34375 10.625 C 24.191406 10.546875 24.113281 10.53125 24.0625 10.480469 C 22.34375 8.835938 20.300781 8.523438 18.03125 8.933594 C 16.6875 9.175781 15.324219 9.296875 13.972656 9.464844 C 13.835938 9.480469 13.691406 9.425781 13.546875 9.40625 C 13.542969 9.367188 13.539062 9.332031 13.535156 9.296875 C 13.625 9.253906 13.710938 9.191406 13.804688 9.175781 C 15.457031 8.90625 17.113281 8.652344 18.765625 8.382812 C 19.644531 8.234375 20.503906 8.316406 21.363281 8.523438 C 21.441406 8.542969 21.523438 8.554688 21.683594 8.582031 C 21.09375 7.6875 21.335938 6.851562 21.769531 6.070312 C 22.21875 5.265625 22.933594 4.765625 23.859375 4.5625 C 24.523438 4.417969 25.171875 4.484375 25.824219 4.632812 C 28.21875 5.167969 29.664062 7.492188 29.015625 9.765625 C 28.652344 11.039062 27.785156 11.78125 26.445312 11.941406 C 26.597656 12.285156 26.765625 12.613281 26.894531 12.957031 C 27.28125 13.976562 27.324219 15.042969 27.234375 16.105469 C 27.042969 18.402344 26.808594 20.695312 26.558594 22.984375 C 26.496094 23.546875 26.3125 24.101562 26.164062 24.65625 C 26.082031 24.976562 25.125 25.28125 24.878906 25.066406 C 24.804688 25.003906 24.785156 24.839844 24.800781 24.730469 C 24.867188 24.195312 24.953125 23.660156 25.027344 23.125 C 25.078125 22.75 25.117188 22.378906 25.164062 21.984375 C 24.671875 21.4375 24.152344 20.867188 23.585938 20.238281 C 23.066406 21.539062 22.597656 22.71875 22.128906 23.898438 C 21.960938 24.320312 21.863281 24.808594 21.386719 25.003906 C 21.183594 25.085938 20.914062 25.105469 20.714844 25.039062 C 20.632812 25.011719 20.574219 24.632812 20.648438 24.484375 C 21.476562 22.84375 21.359375 21.03125 21.664062 19.292969 C 21.738281 18.867188 21.609375 18.585938 21.359375 18.246094 C 20.894531 17.605469 20.527344 16.898438 20.09375 16.175781 C 19.792969 16.511719 19.421875 16.878906 19.113281 17.285156 C 17.925781 18.859375 16.328125 19.589844 14.371094 19.574219 C 14 19.574219 13.628906 19.457031 13.203125 19.382812 C 13.125 20.039062 12.996094 20.738281 12.96875 21.441406 C 12.917969 22.824219 12.90625 24.207031 12.90625 25.589844 C 12.90625 26.269531 12.769531 26.53125 12.199219 26.726562 C 11.886719 26.832031 11.679688 26.730469 11.671875 26.402344 C 11.632812 24.585938 11.003906 22.902344 10.519531 21.183594 C 10.367188 20.648438 10.011719 20.347656 9.636719 20.035156 C 9.121094 21.574219 8.617188 23.097656 8.109375 24.613281 C 8.007812 24.910156 7.226562 25.394531 6.917969 25.371094 C 6.640625 25.347656 6.519531 25.109375 6.65625 24.804688 C 6.859375 24.359375 7.085938 23.925781 7.285156 23.480469 C 7.355469 23.320312 7.410156 23.144531 7.421875 22.972656 C 7.515625 21.226562 7.605469 19.484375 7.675781 17.738281 C 7.683594 17.460938 7.613281 17.167969 7.519531 16.898438 C 7.253906 16.148438 6.972656 15.402344 6.671875 14.667969 C 6.570312 14.421875 6.382812 14.210938 6.253906 13.976562 C 5.851562 13.226562 5.386719 12.503906 5.089844 11.714844 C 4.828125 11.019531 4.761719 10.25 4.609375 9.515625 Z M 6.847656 25.089844 C 7.695312 24.71875 7.71875 24.726562 7.949219 24.035156 C 8.40625 22.6875 8.835938 21.332031 9.269531 19.980469 C 9.304688 19.867188 9.335938 19.703125 9.28125 19.625 C 8.875 19.015625 8.441406 18.421875 8.015625 17.828125 C 7.976562 17.832031 7.9375 17.839844 7.898438 17.847656 C 7.863281 19.671875 7.828125 21.496094 7.792969 23.320312 C 7.789062 23.648438 7.738281 23.925781 7.457031 24.175781 C 7.222656 24.386719 7.089844 24.714844 6.847656 25.089844 Z M 21.949219 18.964844 C 21.644531 20.910156 22.027344 22.964844 20.917969 24.796875 C 21.148438 24.753906 21.417969 24.710938 21.472656 24.574219 C 22.058594 23.183594 22.609375 21.78125 23.160156 20.375 C 23.195312 20.285156 23.164062 20.117188 23.097656 20.050781 C 22.726562 19.675781 22.332031 19.324219 21.949219 18.964844 Z M 21.949219 18.964844 " fill-opacity="1" fill-rule="nonzero"/></g><g clip-path="url(#f842bf330f)"><path fill="#000000" d="M 4.027344 5.457031 C 3.898438 4.667969 4.871094 3.613281 5.914062 3.335938 C 6.023438 2.953125 6.132812 2.566406 6.242188 2.183594 C 6.289062 2.167969 6.335938 2.152344 6.386719 2.132812 C 6.566406 2.402344 6.746094 2.667969 6.925781 2.9375 C 6.875 2.976562 6.828125 3.011719 6.777344 3.050781 C 6.65625 2.9375 6.53125 2.820312 6.367188 2.667969 C 6.324219 2.90625 6.285156 3.121094 6.246094 3.339844 C 6.773438 3.53125 7.214844 3.589844 7.597656 3.082031 C 7.847656 2.753906 8.214844 2.511719 8.523438 2.226562 C 8.683594 2.078125 8.84375 2.066406 8.925781 2.273438 C 9.199219 2.953125 9.246094 3.652344 9.007812 4.355469 C 8.992188 4.394531 8.957031 4.425781 8.925781 4.449219 C 8.90625 4.464844 8.875 4.46875 8.765625 4.5 L 8.765625 2.507812 C 8.726562 2.496094 8.691406 2.484375 8.652344 2.472656 C 8.273438 2.824219 7.914062 3.195312 7.511719 3.507812 C 7.320312 3.660156 7.035156 3.800781 6.8125 3.777344 C 5.015625 3.59375 5.109375 3.757812 4.375 5.070312 C 4.300781 5.207031 4.164062 5.308594 4.027344 5.457031 Z M 4.027344 5.457031 " fill-opacity="1" fill-rule="nonzero"/></g><path fill="#000000" d="M 13.589844 10.167969 C 13.386719 10.019531 13.148438 9.902344 12.996094 9.714844 C 12.558594 9.1875 12.152344 8.632812 11.734375 8.089844 C 11.007812 7.148438 10.273438 6.210938 9.546875 5.265625 C 9.453125 5.144531 9.382812 5.003906 9.363281 4.832031 C 11.195312 6.257812 12.304688 8.265625 13.761719 9.992188 C 13.703125 10.050781 13.648438 10.109375 13.589844 10.167969 Z M 13.589844 10.167969 " fill-opacity="1" fill-rule="nonzero"/><path fill="#000000" d="M 4.609375 9.515625 C 4.261719 9.542969 3.910156 9.578125 3.5625 9.59375 C 3.171875 9.609375 3.078125 9.488281 3.21875 9.121094 C 3.320312 8.859375 3.460938 8.617188 3.601562 8.339844 C 2.792969 8.085938 1.773438 8.265625 1.339844 7.261719 C 1.257812 7.074219 1.171875 6.886719 1.089844 6.699219 C 1.136719 6.671875 1.183594 6.644531 1.230469 6.617188 C 1.324219 6.71875 1.453125 6.800781 1.507812 6.921875 C 1.875 7.746094 2.585938 7.941406 3.398438 7.984375 C 3.667969 8 3.9375 8.058594 4.164062 8.09375 C 3.925781 8.507812 3.71875 8.867188 3.476562 9.289062 C 3.871094 9.261719 4.160156 9.234375 4.453125 9.230469 C 4.664062 9.230469 4.808594 9.296875 4.597656 9.523438 C 4.597656 9.523438 4.609375 9.515625 4.609375 9.515625 Z M 4.609375 9.515625 " fill-opacity="1" fill-rule="nonzero"/><path fill="#000000" d="M 24.457031 10.367188 C 24.683594 10.253906 24.914062 10.140625 25.074219 10.066406 C 24.824219 9.8125 24.445312 9.578125 24.304688 9.246094 C 24.167969 8.921875 24.195312 8.476562 24.289062 8.121094 C 24.488281 7.398438 24.785156 7.144531 25.253906 7.175781 C 25.1875 7.265625 25.144531 7.34375 25.085938 7.40625 C 24.328125 8.171875 24.433594 9.136719 25.324219 9.710938 C 25.453125 9.796875 25.640625 9.988281 25.617188 10.074219 C 25.578125 10.210938 25.390625 10.347656 25.238281 10.398438 C 25.007812 10.476562 24.753906 10.480469 24.507812 10.515625 C 24.488281 10.464844 24.472656 10.417969 24.457031 10.367188 Z M 24.457031 10.367188 " fill-opacity="1" fill-rule="nonzero"/><g clip-path="url(#7f648b8e25)"><path fill="#000000" d="M 3.785156 5.394531 C 3.464844 5.371094 3.140625 5.367188 2.824219 5.328125 C 1.929688 5.21875 1.617188 5.410156 1.363281 6.261719 C 1.023438 6.191406 0.867188 5.972656 0.867188 5.652344 C 0.867188 5.308594 1.054688 5.144531 1.40625 5.082031 C 2.222656 4.9375 3.011719 5.011719 3.792969 5.222656 C 3.789062 5.277344 3.789062 5.335938 3.785156 5.394531 Z M 3.785156 5.394531 " fill-opacity="1" fill-rule="nonzero"/></g><path fill="#000000" d="M 5.671875 5.28125 C 5.457031 5.488281 5.253906 5.707031 5.023438 5.886719 C 4.960938 5.9375 4.804688 5.871094 4.691406 5.859375 C 4.710938 5.75 4.691406 5.574219 4.757812 5.535156 C 5.015625 5.375 5.296875 5.257812 5.566406 5.125 C 5.601562 5.175781 5.636719 5.230469 5.671875 5.28125 Z M 5.671875 5.28125 " fill-opacity="1" fill-rule="nonzero"/></svg>