<?xml version="1.0" encoding="UTF-8"?>
<svg id="_レイヤー_2" data-name="レイヤー 2" xmlns="http://www.w3.org/2000/svg" viewBox="0 0 308.69 30.67">
  <defs>
    <style>
      .cls-1 {
        fill: #5cc5f8;
      }
    </style>
  </defs>
  <g id="_レイヤー_1-2" data-name="レイヤー 1">
    <g>
      <path class="cls-1" d="M19.79,10.2c-.1-1.16-.37-2.18-.82-3.09-.65-1.39-2.21-2.07-4.69-2.07h-2.79v19.24c0,1.12.31,1.84.92,2.18.48.24,1.36.41,2.69.48v.95H5.54v-.95c1.29-.07,2.18-.2,2.65-.41.65-.27.95-1.02.95-2.24V5.03h-2.55c-2.38,0-3.94.65-4.66,1.9-.48.82-.82,1.9-.99,3.26h-.95L.48,3.91h19.99l.34,6.29h-1.02Z"/>
      <path class="cls-1" d="M25.3,19.21v.58c0,2.24.68,4.05,2.04,5.44,1.12,1.12,2.52,1.7,4.15,1.7,2.41,0,4.32-1.19,5.64-3.54l.92.71c-1.46,2.89-3.77,4.32-6.97,4.32-2.35,0-4.32-.78-5.85-2.31-1.53-1.6-2.31-3.71-2.31-6.36,0-2.82.82-5.07,2.45-6.66,1.39-1.46,3.2-2.18,5.41-2.18s3.84.68,5.17,2.04c1.46,1.46,2.18,3.33,2.18,5.64v.61h-12.82ZM35.8,17.92c-.07-1.94-.65-3.47-1.7-4.56-.92-.88-2.04-1.33-3.37-1.33-1.6,0-2.89.68-3.94,2.07-.75.99-1.22,2.24-1.39,3.81h10.4Z"/>
      <path class="cls-1" d="M56.71,24.1c-1.5,2.89-3.77,4.32-6.87,4.32-2.28,0-4.15-.75-5.61-2.28-1.56-1.6-2.35-3.71-2.35-6.36s.82-4.96,2.48-6.63c1.46-1.5,3.3-2.24,5.58-2.24,1.9,0,3.5.51,4.76,1.5.99.78,1.46,1.6,1.46,2.48,0,1.16-.51,1.73-1.56,1.73-.99,0-1.5-.48-1.5-1.39,0-.65.27-1.09.82-1.33-.82-1.26-2.11-1.87-3.88-1.87-1.97,0-3.43.88-4.42,2.69-.78,1.39-1.19,3.03-1.22,4.9,0,2.07.54,3.81,1.63,5.17,1.09,1.39,2.48,2.07,4.22,2.07,2.35,0,4.15-1.16,5.47-3.5l.99.75Z"/>
      <path class="cls-1" d="M70.31,27.88v-.95c.71,0,1.36-.07,1.87-.17.71-.2,1.09-.85,1.09-1.97v-7.14c0-3.43-1.26-5.13-3.77-5.13s-4.18,1.36-5.2,4.08v8.19c0,1.02.27,1.63.78,1.84.51.2,1.22.31,2.18.31v.95h-8.19v-.95c.78,0,1.43-.07,1.9-.2.71-.2,1.09-.85,1.09-1.94V7.04c0-1.02-.27-1.63-.78-1.87-.34-.14-1.05-.2-2.18-.2v-1.05c1.87-.03,3.6-.2,5.2-.51v10.95c1.46-2.21,3.33-3.3,5.68-3.3,3.71,0,5.58,2.04,5.58,6.12v7.62c0,1.02.27,1.63.78,1.84.51.2,1.22.31,2.18.31v.95h-8.19Z"/>
      <path class="cls-1" d="M99.25,26.51c0,.36-.31.7-1.09.84-2.18.48-4.14.67-5.82.67-4.76,0-7.42-1.65-7.42-4.03,0-1.9,1.68-4.26,5.26-6.58-3.11-1.88-1.85-8.04-3.78-9.13-.42-.22-.59-.5-.59-.73,0-.25.22-.42.67-.42.31,0,.7.08,1.18.28,1.57.67,1.79,2.1,1.79,3.7,0,.64-.06,1.34-.06,2.02,0,1.51.2,2.94,1.46,3.84,1.37-.81,2.97-1.65,4.84-2.44.62-.28.92-.73.92-1.23,0-.25-.11-.53-.28-.78-.11-.17-.2-.34-.2-.45,0-.25.2-.42.56-.42.28,0,.67.11,1.09.36.7.39,1.06.98,1.06,1.62,0,.87-.7,1.82-2.24,2.44-7.39,2.94-10.3,5.82-10.3,7.78,0,1.6,1.88,2.6,4.82,2.6,1.65,0,3.61-.31,5.77-1.01.22-.06.45-.08.64-.08.92,0,1.71.59,1.71,1.15Z"/>
      <path class="cls-1" d="M113.73,30.67h-1.9v-7.99c-1.9,1.26-4.01,2.31-6.36,3.16l-.41-.75c4.08-1.84,7.38-4.28,9.86-7.31h-9.31l-.34-.85h10.34c.65-.88,1.19-1.7,1.56-2.45h-4.52v1.12h-1.94V5.85c.65.24,1.43.58,2.31,1.02h14.89l1.22-1.39c1.36.99,2.04,1.63,2.04,1.97,0,.1-.07.2-.2.31l-.88.58v7.21h-1.9v-1.05h-8.77c-.65,1.05-1.16,1.87-1.53,2.45h14.04l1.67-2.14c.95.85,1.7,1.63,2.21,2.38l-.34.61h-10.1c2.62,2.38,6.15,4.05,10.57,5.03-.65.61-1.12,1.26-1.43,1.9-1.9-.61-3.77-1.5-5.58-2.62v8.57h-1.9v-1.5h-13.29v1.5ZM106.05,3.84l-.34-.85h9.15V0c2.14.1,3.2.34,3.2.75,0,.27-.44.58-1.33.88v1.36h7.34V0c2.11.07,3.16.31,3.16.75,0,.24-.44.51-1.29.78v1.46h5.85l1.6-2.11c.85.71,1.56,1.5,2.18,2.31l-.37.65h-9.25v2.18h-1.87v-2.18h-7.34v2.18h-1.87v-2.18h-8.81ZM128.18,10.13v-2.41h-15.54v2.41h15.54ZM128.18,13.63v-2.65h-15.54v2.65h15.54ZM127.02,24.24v-2.96h-13.29v2.96h13.29ZM127.02,28.32v-3.23h-13.29v3.23h13.29ZM126.71,20.43c-.99-.85-1.84-1.73-2.58-2.65h-6.9c-.71.92-1.56,1.8-2.52,2.65h12Z"/>
      <path class="cls-1" d="M147.08,29.24c-.51-.03-.75-.24-.75-.41,0-.2.27-.41.82-.41,10.03.1,14.07-4.56,14.07-8.26,0-2.45-1.73-4.45-4.66-4.45-2.45,0-5.78,1.46-9.59,5.27-.92.88-1.8,1.33-2.58,1.33-1.33,0-2.24-1.19-2.14-3.03.14-2.52.71-6.46,1.16-9.49.44-3.03,3.33-3.23,6.32-3.64.31,0,.41-.2.41-.37,0-.14-.03-.24-.14-.34-.88-1.33-1.94-1.97-3.47-2.58-.44-.2-.61-.37-.61-.58,0-.24.27-.41.65-.41,3.77.14,4.86,1.12,5.95,2.75.48.75.71,1.43.71,1.97,0,.82-.51,1.33-1.5,1.33-.34,0-.71-.07-1.16-.17-1.16-.34-2.11-.48-2.82-.48-2.01,0-2.55,1.05-2.72,2.52l-.92,7.62c-.03.2-.03.37-.03.51,0,.82.34,1.12.82,1.12.51,0,1.19-.31,1.8-.75,4.04-2.92,7.48-4.05,10.13-4.05,4.04,0,6.25,2.62,6.25,5.71,0,4.25-4.28,9.35-14.11,9.35-.65,0-1.26-.03-1.9-.07Z"/>
      <path class="cls-1" d="M170.34,21.89c0-.41.03-.85.07-1.33.78-8.57,1.46-12.31,1.46-14.31,0-.99-.14-1.56-.54-2.11-.24-.31-.34-.61-.34-.85,0-.31.2-.51.58-.51.2,0,.44.07.71.2,1.5.82,2.01,1.77,2.01,3.43,0,2.48-1.16,6.53-1.8,13.97-.03.34-.03.68-.03.99,0,4.05,2.31,5.92,5.54,5.92,3.47,0,7.99-2.14,12-6.02.27-.27.51-.37.71-.37.17,0,.31.1.31.27s-.1.41-.31.65c-4.22,5.1-9.35,7.68-13.43,7.68s-6.94-2.48-6.94-7.62Z"/>
      <path class="cls-1" d="M216.65,18.31c0,6.1-4.87,9.46-10.98,9.46-.73,0-1.48-.06-2.24-.14-.34-.06-.48-.2-.48-.34s.17-.28.48-.31c5.24-.06,11.42-2.27,11.42-8.6,0-5.46-3.98-8.04-8.2-8.04-.39,0-.78.03-1.2.06.03.59.06,1.12.06,1.68,0,9.16-3.78,13.3-6.78,13.3-1.96,0-3.58-1.82-3.58-5.21,0-7,6.33-11.03,12.1-11.03,4.87,0,9.41,2.86,9.41,9.16ZM204.42,10.61c-4.06.87-7.73,4.12-7.73,9.38,0,2.04.81,3.05,2.04,3.05,2.3,0,5.68-3.75,5.68-11.96v-.48Z"/>
      <path class="cls-1" d="M249.59,12.48c0,.37-.24.61-.78.61-.14,0-.31,0-.48-.03-1.9-.37-3.71-.48-5.71-.48h-1.84c-.65,12.51-4.28,15.03-10.81,17.78-.1.07-.2.1-.31.1-.17,0-.27-.1-.27-.24s.14-.34.44-.51c7.17-3.88,8.67-7.92,8.94-17.1-2.31.03-4.28.1-5.95.2l.24,5.3c.07,1.39-.51,2.07-1.09,2.07s-1.16-.68-1.16-1.97c0-2.07.03-3.81.07-5.27-3.57.31-5.44.65-6.7.65-1.09,0-1.77-.27-2.72-1.02-.48-.37-.65-.71-.65-.99,0-.41.41-.71.92-.71.17,0,.31.03.48.07,1.33.48,2.14.65,4.49.65,1.05,0,2.38-.03,4.18-.1v-.07c0-4.32-.24-5.34-1.33-6.02-.34-.2-.51-.51-.51-.75,0-.34.27-.65.75-.65.17,0,.41.03.61.14,2.07.85,2.24,1.63,2.24,3.26,0,.88.03,1.84.1,4.01l6.05-.24c.03-1.12.03-2.31.03-3.6,0-1.97-.03-3.09-1.5-4.39-.37-.31-.54-.65-.54-.85,0-.24.17-.41.54-.41.24,0,.48.07.82.17,2.41.85,2.82,2.21,2.82,3.74,0,.82-.1,1.63-.1,2.48,0,.99,0,1.9-.03,2.75.41,0,.82,0,1.26-.03,1.87-.07,3.4-.58,4.66-.58.58,0,1.12.14,1.6.44.78.48,1.22,1.12,1.22,1.56Z"/>
      <path class="cls-1" d="M274.62,11.69c-.48,2.01-1.19,5.75-1.9,9.86,1.05.14,1.77.88,1.77,1.5,0,.48-.41.85-1.46.82-2.65-.1-4.79-.14-6.7-.14-2.41,0-4.42.07-6.42.2.03.48.03.99.07,1.5.07.99-.37,1.5-.82,1.5-.48,0-.99-.51-1.05-1.46-.99-14.79-.92-15.13-2.65-16.11-.44-.24-.65-.61-.65-.92,0-.44.41-.78,1.29-.78.2,0,.41,0,.65.03,2.01.34,2.55,1.43,2.72,2.31,2.62-.24,7.11-.78,11.8-1.46.44-.07.82-.1,1.16-.1,1.7,0,2.41.75,2.41,2.01,0,.37-.07.82-.2,1.26ZM271.29,21.59c.44-4.15.99-9.42,1.05-10.27l.03-.24c0-.34-.14-.65-.65-.61-5.44.31-8.53.58-12.24,1.05l-.03.41c0,1.63.1,4.52.37,10.61,3.3-.41,7.31-.75,11.46-.95Z"/>
      <path class="cls-1" d="M287.51,12.44c-1.26-1.46-3.3-3.06-4.62-3.6-.54-.24-.78-.51-.78-.75,0-.27.31-.48.88-.44,2.18.17,4.52.85,6.53,2.72.65.61.92,1.22.92,1.7,0,.71-.54,1.22-1.26,1.22-.51,0-1.12-.27-1.67-.85ZM284.45,24.07c0-.2.03-.37.07-.58.14-.58.44-.88.71-.88s.51.27.61.78c.1.41.58.58.99.58,5.85,0,14.96-7.68,20.81-15.77.27-.37.54-.54.75-.54s.31.14.31.34c0,.14-.03.34-.17.54-5.37,9.52-15.6,18.19-21.72,18.19-1.46,0-2.35-1.43-2.35-2.65Z"/>
    </g>
  </g>
</svg>