<?xml version="1.0" encoding="UTF-8"?>
<svg id="_レイヤー_2" data-name="レイヤー 2" xmlns="http://www.w3.org/2000/svg" viewBox="0 0 308.69 51.15">
  <defs>
    <style>
      .cls-1 {
        fill: #5cc5f8;
      }
    </style>
  </defs>
  <g id="_レイヤー_1-2" data-name="レイヤー 1">
    <g>
      <g>
        <path class="cls-1" d="M19.79,30.69c-.1-1.16-.37-2.18-.82-3.09-.65-1.39-2.21-2.07-4.69-2.07h-2.79v19.24c0,1.12.31,1.84.92,2.18.48.24,1.36.41,2.69.48v.95H5.54v-.95c1.29-.07,2.18-.2,2.65-.41.65-.27.95-1.02.95-2.24v-19.24h-2.55c-2.38,0-3.94.65-4.66,1.9-.48.82-.82,1.9-.99,3.26h-.95l.48-6.29h19.99l.34,6.29h-1.02Z"/>
        <path class="cls-1" d="M25.3,39.7v.58c0,2.24.68,4.05,2.04,5.44,1.12,1.12,2.52,1.7,4.15,1.7,2.41,0,4.32-1.19,5.64-3.54l.92.71c-1.46,2.89-3.77,4.32-6.97,4.32-2.35,0-4.32-.78-5.85-2.31-1.53-1.6-2.31-3.71-2.31-6.36,0-2.82.82-5.07,2.45-6.66,1.39-1.46,3.2-2.18,5.41-2.18s3.84.68,5.17,2.04c1.46,1.46,2.18,3.33,2.18,5.64v.61h-12.82ZM35.8,38.41c-.07-1.94-.65-3.47-1.7-4.56-.92-.88-2.04-1.33-3.37-1.33-1.6,0-2.89.68-3.94,2.07-.75.99-1.22,2.24-1.39,3.81h10.4Z"/>
        <path class="cls-1" d="M56.71,44.59c-1.5,2.89-3.77,4.32-6.87,4.32-2.28,0-4.15-.75-5.61-2.28-1.56-1.6-2.35-3.71-2.35-6.36s.82-4.96,2.48-6.63c1.46-1.5,3.3-2.24,5.58-2.24,1.9,0,3.5.51,4.76,1.5.99.78,1.46,1.6,1.46,2.48,0,1.16-.51,1.73-1.56,1.73-.99,0-1.5-.48-1.5-1.39,0-.65.27-1.09.82-1.33-.82-1.26-2.11-1.87-3.88-1.87-1.97,0-3.43.88-4.42,2.69-.78,1.39-1.19,3.03-1.22,4.9,0,2.07.54,3.81,1.63,5.17,1.09,1.39,2.48,2.07,4.22,2.07,2.35,0,4.15-1.16,5.47-3.5l.99.75Z"/>
        <path class="cls-1" d="M70.31,48.37v-.95c.71,0,1.36-.07,1.87-.17.71-.2,1.09-.85,1.09-1.97v-7.14c0-3.43-1.26-5.13-3.77-5.13s-4.18,1.36-5.2,4.08v8.19c0,1.02.27,1.63.78,1.84.51.2,1.22.31,2.18.31v.95h-8.19v-.95c.78,0,1.43-.07,1.9-.2.71-.2,1.09-.85,1.09-1.94v-17.75c0-1.02-.27-1.63-.78-1.87-.34-.14-1.05-.2-2.18-.2v-1.05c1.87-.03,3.6-.2,5.2-.51v10.95c1.46-2.21,3.33-3.3,5.68-3.3,3.71,0,5.58,2.04,5.58,6.12v7.62c0,1.02.27,1.63.78,1.84.51.2,1.22.31,2.18.31v.95h-8.19Z"/>
        <path class="cls-1" d="M99.25,47c0,.36-.31.7-1.09.84-2.18.48-4.14.67-5.82.67-4.76,0-7.42-1.65-7.42-4.03,0-1.9,1.68-4.26,5.26-6.58-3.11-1.88-1.85-8.04-3.78-9.13-.42-.22-.59-.5-.59-.73,0-.25.22-.42.67-.42.31,0,.7.08,1.18.28,1.57.67,1.79,2.1,1.79,3.7,0,.64-.06,1.34-.06,2.02,0,1.51.2,2.94,1.46,3.84,1.37-.81,2.97-1.65,4.84-2.44.62-.28.92-.73.92-1.23,0-.25-.11-.53-.28-.78-.11-.17-.2-.34-.2-.45,0-.25.2-.42.56-.42.28,0,.67.11,1.09.36.7.39,1.06.98,1.06,1.62,0,.87-.7,1.82-2.24,2.44-7.39,2.94-10.3,5.82-10.3,7.78,0,1.6,1.88,2.6,4.82,2.6,1.65,0,3.61-.31,5.77-1.01.22-.06.45-.08.64-.08.92,0,1.71.59,1.71,1.15Z"/>
        <path class="cls-1" d="M113.73,51.15h-1.9v-7.99c-1.9,1.26-4.01,2.31-6.36,3.16l-.41-.75c4.08-1.84,7.38-4.28,9.86-7.31h-9.31l-.34-.85h10.34c.65-.88,1.19-1.7,1.56-2.45h-4.52v1.12h-1.94v-9.76c.65.24,1.43.58,2.31,1.02h14.89l1.22-1.39c1.36.99,2.04,1.63,2.04,1.97,0,.1-.07.2-.2.31l-.88.58v7.21h-1.9v-1.05h-8.77c-.65,1.05-1.16,1.87-1.53,2.45h14.04l1.67-2.14c.95.85,1.7,1.63,2.21,2.38l-.34.61h-10.1c2.62,2.38,6.15,4.05,10.57,5.03-.65.61-1.12,1.26-1.43,1.9-1.9-.61-3.77-1.5-5.58-2.62v8.57h-1.9v-1.5h-13.29v1.5ZM106.05,24.33l-.34-.85h9.15v-2.99c2.14.1,3.2.34,3.2.75,0,.27-.44.58-1.33.88v1.36h7.34v-2.99c2.11.07,3.16.31,3.16.75,0,.24-.44.51-1.29.78v1.46h5.85l1.6-2.11c.85.71,1.56,1.5,2.18,2.31l-.37.65h-9.25v2.18h-1.87v-2.18h-7.34v2.18h-1.87v-2.18h-8.81ZM128.18,30.62v-2.41h-15.54v2.41h15.54ZM128.18,34.12v-2.65h-15.54v2.65h15.54ZM127.02,44.73v-2.96h-13.29v2.96h13.29ZM127.02,48.81v-3.23h-13.29v3.23h13.29ZM126.71,40.92c-.99-.85-1.84-1.73-2.58-2.65h-6.9c-.71.92-1.56,1.8-2.52,2.65h12Z"/>
        <path class="cls-1" d="M147.08,49.73c-.51-.03-.75-.24-.75-.41,0-.2.27-.41.82-.41,10.03.1,14.07-4.56,14.07-8.26,0-2.45-1.73-4.45-4.66-4.45-2.45,0-5.78,1.46-9.59,5.27-.92.88-1.8,1.33-2.58,1.33-1.33,0-2.24-1.19-2.14-3.03.14-2.52.71-6.46,1.16-9.49.44-3.03,3.33-3.23,6.32-3.64.31,0,.41-.2.41-.37,0-.14-.03-.24-.14-.34-.88-1.33-1.94-1.97-3.47-2.58-.44-.2-.61-.37-.61-.58,0-.24.27-.41.65-.41,3.77.14,4.86,1.12,5.95,2.75.48.75.71,1.43.71,1.97,0,.82-.51,1.33-1.5,1.33-.34,0-.71-.07-1.16-.17-1.16-.34-2.11-.48-2.82-.48-2.01,0-2.55,1.05-2.72,2.52l-.92,7.62c-.03.2-.03.37-.03.51,0,.82.34,1.12.82,1.12.51,0,1.19-.31,1.8-.75,4.04-2.92,7.48-4.05,10.13-4.05,4.04,0,6.25,2.62,6.25,5.71,0,4.25-4.28,9.35-14.11,9.35-.65,0-1.26-.03-1.9-.07Z"/>
        <path class="cls-1" d="M170.34,42.38c0-.41.03-.85.07-1.33.78-8.57,1.46-12.31,1.46-14.31,0-.99-.14-1.56-.54-2.11-.24-.31-.34-.61-.34-.85,0-.31.2-.51.58-.51.2,0,.44.07.71.2,1.5.82,2.01,1.77,2.01,3.43,0,2.48-1.16,6.53-1.8,13.97-.03.34-.03.68-.03.99,0,4.05,2.31,5.92,5.54,5.92,3.47,0,7.99-2.14,12-6.02.27-.27.51-.37.71-.37.17,0,.31.1.31.27s-.1.41-.31.65c-4.22,5.1-9.35,7.68-13.43,7.68s-6.94-2.48-6.94-7.62Z"/>
        <path class="cls-1" d="M216.65,38.79c0,6.1-4.87,9.46-10.98,9.46-.73,0-1.48-.06-2.24-.14-.34-.06-.48-.2-.48-.34s.17-.28.48-.31c5.24-.06,11.42-2.27,11.42-8.6,0-5.46-3.98-8.04-8.2-8.04-.39,0-.78.03-1.2.06.03.59.06,1.12.06,1.68,0,9.16-3.78,13.3-6.78,13.3-1.96,0-3.58-1.82-3.58-5.21,0-7,6.33-11.03,12.1-11.03,4.87,0,9.41,2.86,9.41,9.16ZM204.42,31.1c-4.06.87-7.73,4.12-7.73,9.38,0,2.04.81,3.05,2.04,3.05,2.3,0,5.68-3.75,5.68-11.96v-.48Z"/>
        <path class="cls-1" d="M249.59,32.97c0,.37-.24.61-.78.61-.14,0-.31,0-.48-.03-1.9-.37-3.71-.48-5.71-.48h-1.84c-.65,12.51-4.28,15.03-10.81,17.78-.1.07-.2.1-.31.1-.17,0-.27-.1-.27-.24s.14-.34.44-.51c7.17-3.88,8.67-7.92,8.94-17.1-2.31.03-4.28.1-5.95.2l.24,5.3c.07,1.39-.51,2.07-1.09,2.07s-1.16-.68-1.16-1.97c0-2.07.03-3.81.07-5.27-3.57.31-5.44.65-6.7.65-1.09,0-1.77-.27-2.72-1.02-.48-.37-.65-.71-.65-.99,0-.41.41-.71.92-.71.17,0,.31.03.48.07,1.33.48,2.14.65,4.49.65,1.05,0,2.38-.03,4.18-.1v-.07c0-4.32-.24-5.34-1.33-6.02-.34-.2-.51-.51-.51-.75,0-.34.27-.65.75-.65.17,0,.41.03.61.14,2.07.85,2.24,1.63,2.24,3.26,0,.88.03,1.84.1,4.01l6.05-.24c.03-1.12.03-2.31.03-3.6,0-1.97-.03-3.09-1.5-4.39-.37-.31-.54-.65-.54-.85,0-.24.17-.41.54-.41.24,0,.48.07.82.17,2.41.85,2.82,2.21,2.82,3.74,0,.82-.1,1.63-.1,2.48,0,.99,0,1.9-.03,2.75.41,0,.82,0,1.26-.03,1.87-.07,3.4-.58,4.66-.58.58,0,1.12.14,1.6.44.78.48,1.22,1.12,1.22,1.56Z"/>
        <path class="cls-1" d="M274.62,32.18c-.48,2.01-1.19,5.75-1.9,9.86,1.05.14,1.77.88,1.77,1.5,0,.48-.41.85-1.46.82-2.65-.1-4.79-.14-6.7-.14-2.41,0-4.42.07-6.42.2.03.48.03.99.07,1.5.07.99-.37,1.5-.82,1.5-.48,0-.99-.51-1.05-1.46-.99-14.79-.92-15.13-2.65-16.11-.44-.24-.65-.61-.65-.92,0-.44.41-.78,1.29-.78.2,0,.41,0,.65.03,2.01.34,2.55,1.43,2.72,2.31,2.62-.24,7.11-.78,11.8-1.46.44-.07.82-.1,1.16-.1,1.7,0,2.41.75,2.41,2.01,0,.37-.07.82-.2,1.26ZM271.29,42.08c.44-4.15.99-9.42,1.05-10.27l.03-.24c0-.34-.14-.65-.65-.61-5.44.31-8.53.58-12.24,1.05l-.03.41c0,1.63.1,4.52.37,10.61,3.3-.41,7.31-.75,11.46-.95Z"/>
        <path class="cls-1" d="M287.51,32.93c-1.26-1.46-3.3-3.06-4.62-3.6-.54-.24-.78-.51-.78-.75,0-.27.31-.48.88-.44,2.18.17,4.52.85,6.53,2.72.65.61.92,1.22.92,1.7,0,.71-.54,1.22-1.26,1.22-.51,0-1.12-.27-1.67-.85ZM284.45,44.56c0-.2.03-.37.07-.58.14-.58.44-.88.71-.88s.51.27.61.78c.1.41.58.58.99.58,5.85,0,14.96-7.68,20.81-15.77.27-.37.54-.54.75-.54s.31.14.31.34c0,.14-.03.34-.17.54-5.37,9.52-15.6,18.19-21.72,18.19-1.46,0-2.35-1.43-2.35-2.65Z"/>
      </g>
      <g>
        <path class="cls-1" d="M16.76,10.8c-.17,0-.25-.07-.25-.14,0-.1.1-.18.29-.22,3.54-.63,5.04-2.68,5.04-4.26,0-1.12-.74-2.02-2.03-2.02-1.09,0-2.58.64-4.34,2.34-.49.46-1.04.64-1.53.64-.35,0-.69-.08-.95-.24-.6-.35-.81-.63-.81-.8,0-.14.14-.21.31-.21.06,0,.11,0,.17.01.29.07.55.13.8.13.49,0,.97-.2,1.78-.76,1.81-1.25,3.33-1.74,4.54-1.74,1.92,0,3,1.26,3,2.73,0,1.92-1.81,4.2-5.95,4.52h-.06Z"/>
        <path class="cls-1" d="M33.08,11.89c-.52-2.24-1.29-3.46-2.49-5.03-.15-.18-.24-.42-.24-.67,0-.15.04-.32.13-.49,1.37-2.69,2.93-3.66,2.93-4.52,0-.04,0-.1-.01-.14-.01-.08-.01-.15-.01-.22,0-.25.11-.39.27-.39.11,0,.25.08.36.24.2.25.35.59.35.94,0,.32-.13.64-.5.92-.98.71-2.34,2.16-2.86,3.42-.04.1-.06.18-.06.27,0,.13.04.25.14.36,1.69,1.98,2.55,2.97,3,5.17.01.07.03.15.03.22,0,.36-.21.56-.43.56-.24,0-.49-.2-.59-.63Z"/>
        <path class="cls-1" d="M51.06,8.29c0,2.58-2.16,3.47-4.05,3.47-1.44,0-2.73-.52-2.73-1.23,0-.57.85-.94,1.65-.94.71,0,1.39.29,1.39.98,0,.15-.03.32-.1.49,1.43-.15,2.98-.94,3-2.86-.01-1.15-1.33-2.23-2.97-2.23-1.46,0-3.18.85-4.41,3.29-.27.5-.55.7-.74.7-.22,0-.39-.21-.39-.52,0-.22.1-.49.29-.74.76-.9,4.94-6.05,5.14-6.32.06-.08.08-.15.08-.21s-.04-.1-.1-.1c-.04,0-.11.03-.2.08-1.4.94-2.28,1.33-2.89,1.33-.25,0-.45-.06-.63-.18-.29-.21-.42-.46-.42-.64,0-.13.07-.22.2-.22.07,0,.14.01.24.06.21.11.42.15.64.15.73,0,1.58-.48,2.8-1.26.38-.24.69-.34.94-.34.43,0,.67.31.67.66,0,.25-.13.55-.36.74-.78.63-1.6,1.58-3.12,3.36-.03.04-.04.07-.04.1,0,.01.01.03.03.03.03,0,.06-.01.08-.03.78-.39,1.62-.59,2.41-.59,1.92,0,3.59,1.09,3.59,2.96ZM46.43,11.11c.11-.2.17-.35.17-.5,0-.39-.41-.6-.81-.6s-.78.2-.77.53c-.01.29.62.53,1.42.57Z"/>
        <path class="cls-1" d="M62.4,1.78c0,4.36,2.03,7.52,6.08,9.47-.38.27-.66.53-.81.83-2.14-1.33-3.63-2.9-4.45-4.68-.45-.97-.76-2.07-.92-3.32-.27,2.07-.87,3.75-1.78,5.06-.98,1.36-2.47,2.42-4.45,3.18l-.2-.31c2.14-1.05,3.66-2.48,4.51-4.26.77-1.57,1.15-3.53,1.15-5.87V.55c.99.04,1.5.17,1.5.38,0,.13-.21.27-.62.39v.46Z"/>
        <path class="cls-1" d="M83.54,6.67c0,3.05-2.44,4.73-5.49,4.73-.36,0-.74-.03-1.12-.07-.17-.03-.24-.1-.24-.17s.08-.14.24-.15c2.62-.03,5.72-1.13,5.72-4.3,0-2.73-1.99-4.02-4.1-4.02-.2,0-.39.01-.6.03.01.29.03.56.03.84,0,4.58-1.89,6.65-3.39,6.65-.98,0-1.79-.91-1.79-2.61,0-3.5,3.17-5.52,6.05-5.52,2.44,0,4.71,1.43,4.71,4.58ZM77.42,2.82c-2.03.43-3.87,2.06-3.87,4.69,0,1.02.41,1.53,1.02,1.53,1.15,0,2.84-1.88,2.84-5.98v-.24Z"/>
        <path class="cls-1" d="M89.36,12.1c-.43-.88-.97-1.69-2.1-2.54-.11-.08-.14-.17-.08-.25.04-.07.13-.1.25-.06,1.57.53,2.4,1.22,2.84,1.86.25.36.34.63.34.94,0,.41-.24.63-.57.63-.29,0-.48-.17-.67-.59Z"/>
        <path class="cls-1" d="M97.54,9.02c0-.17.01-.35.03-.55.32-3.53.6-5.07.6-5.9,0-.41-.06-.64-.22-.87-.1-.13-.14-.25-.14-.35,0-.13.08-.21.24-.21.08,0,.18.03.29.08.62.34.83.73.83,1.41,0,1.02-.48,2.69-.74,5.76-.01.14-.01.28-.01.41,0,1.67.95,2.44,2.28,2.44,1.43,0,3.29-.88,4.94-2.48.11-.11.21-.15.29-.15.07,0,.13.04.13.11s-.04.17-.13.27c-1.74,2.1-3.85,3.17-5.53,3.17s-2.86-1.02-2.86-3.14Z"/>
        <path class="cls-1" d="M111.82,8.61c-.01-.06-.01-.1-.01-.14,0-.17.07-.25.17-.25.08,0,.18.08.25.27.38,1.09,1.57,1.6,3.31,1.6.92,0,2.02-.15,3.21-.43.14-.03.27-.04.38-.04.55,0,.92.28.92.56,0,.17-.15.34-.49.42-.98.25-2.03.39-3.04.39-2.34,0-4.41-.73-4.69-2.37ZM116.19,3.35c0-.06.04-.13.11-.2.08-.07.2-.18.25-.22.01-.03.03-.04.03-.06,0-.03-.03-.04-.08-.04-1.06-.06-1.79-.15-2.69-.46-.21-.08-.31-.2-.31-.29s.1-.18.28-.18c.04,0,.08.01.14.01.56.08.99.13,1.42.13.78,0,1.41-.15,2.35-.43.08-.01.15-.03.22-.03.27,0,.42.15.42.35,0,.14-.08.31-.31.43-.48.28-.92.59-1.53,1.05-.07.06-.14.07-.18.07-.08,0-.13-.06-.13-.13ZM120.35,2.27c-.38-.35-.92-.67-1.37-.81-.2-.07-.27-.17-.27-.28s.1-.21.31-.21c.07,0,.15-.01.22-.01.7,0,1.22.14,1.79.6.22.18.31.36.31.52,0,.24-.2.43-.46.43-.15,0-.35-.07-.53-.24ZM121.53,1.26c-.38-.29-.83-.53-1.26-.63-.2-.04-.29-.15-.29-.27,0-.1.1-.2.29-.22.14-.01.29-.03.43-.03.5,0,1.02.11,1.46.42.2.14.28.32.28.49,0,.24-.18.43-.45.43-.14,0-.29-.06-.46-.2Z"/>
        <path class="cls-1" d="M135.4,10.77c0,.18-.15.35-.55.42-1.09.24-2.07.34-2.91.34-2.38,0-3.71-.83-3.71-2.02,0-.95.84-2.13,2.63-3.29-1.56-.94-.92-4.02-1.89-4.57-.21-.11-.29-.25-.29-.36,0-.13.11-.21.34-.21.15,0,.35.04.59.14.78.34.9,1.05.9,1.85,0,.32-.03.67-.03,1.01,0,.76.1,1.47.73,1.92.69-.41,1.48-.83,2.42-1.22.31-.14.46-.36.46-.62,0-.13-.06-.27-.14-.39-.06-.08-.1-.17-.1-.22,0-.13.1-.21.28-.21.14,0,.34.06.55.18.35.2.53.49.53.81,0,.43-.35.91-1.12,1.22-3.7,1.47-5.15,2.91-5.15,3.89,0,.8.94,1.3,2.41,1.3.83,0,1.81-.15,2.89-.5.11-.03.22-.04.32-.04.46,0,.85.29.85.57Z"/>
        <path class="cls-1" d="M149.97,10.77c0,.18-.15.35-.55.42-1.09.24-2.07.34-2.91.34-2.38,0-3.71-.83-3.71-2.02,0-.95.84-2.13,2.63-3.29-1.56-.94-.92-4.02-1.89-4.57-.21-.11-.29-.25-.29-.36,0-.13.11-.21.34-.21.15,0,.35.04.59.14.78.34.9,1.05.9,1.85,0,.32-.03.67-.03,1.01,0,.76.1,1.47.73,1.92.69-.41,1.48-.83,2.42-1.22.31-.14.46-.36.46-.62,0-.13-.06-.27-.14-.39-.06-.08-.1-.17-.1-.22,0-.13.1-.21.28-.21.14,0,.34.06.55.18.35.2.53.49.53.81,0,.43-.35.91-1.12,1.22-3.7,1.47-5.15,2.91-5.15,3.89,0,.8.94,1.3,2.41,1.3.83,0,1.81-.15,2.89-.5.11-.03.22-.04.32-.04.46,0,.85.29.85.57Z"/>
        <path class="cls-1" d="M158.84,12.63h-.79v-3.29c-.78.52-1.65.95-2.62,1.3l-.17-.31c1.68-.76,3.04-1.77,4.06-3.01h-3.84l-.14-.35h4.26c.27-.36.49-.7.64-1.01h-1.86v.46h-.8V2.41c.27.1.59.24.95.42h6.14l.5-.57c.56.41.84.67.84.81,0,.04-.03.08-.08.13l-.36.24v2.97h-.78v-.43h-3.61c-.27.43-.48.77-.63,1.01h5.79l.69-.88c.39.35.7.67.91.98l-.14.25h-4.16c1.08.98,2.54,1.67,4.36,2.07-.27.25-.46.52-.59.78-.79-.25-1.56-.62-2.3-1.08v3.53h-.78v-.62h-5.48v.62ZM155.68,1.58l-.14-.35h3.77V0c.88.04,1.32.14,1.32.31,0,.11-.18.24-.55.36v.56h3.03V0c.87.03,1.3.13,1.3.31,0,.1-.18.21-.53.32v.6h2.41l.66-.87c.35.29.64.62.9.95l-.15.27h-3.81v.9h-.77v-.9h-3.03v.9h-.77v-.9h-3.63ZM164.8,4.17v-.99h-6.4v.99h6.4ZM164.8,5.62v-1.09h-6.4v1.09h6.4ZM164.32,9.99v-1.22h-5.48v1.22h5.48ZM164.32,11.67v-1.33h-5.48v1.33h5.48ZM164.2,8.42c-.41-.35-.76-.71-1.06-1.09h-2.84c-.29.38-.64.74-1.04,1.09h4.94Z"/>
        <path class="cls-1" d="M175.39,12.05c-.21-.01-.31-.1-.31-.17,0-.08.11-.17.34-.17,4.13.04,5.8-1.88,5.8-3.4,0-1.01-.71-1.83-1.92-1.83-1.01,0-2.38.6-3.95,2.17-.38.36-.74.55-1.06.55-.55,0-.92-.49-.88-1.25.06-1.04.29-2.66.48-3.91.18-1.25,1.37-1.33,2.61-1.5.13,0,.17-.08.17-.15,0-.06-.01-.1-.06-.14-.36-.55-.8-.81-1.43-1.06-.18-.08-.25-.15-.25-.24,0-.1.11-.17.27-.17,1.55.06,2,.46,2.45,1.13.2.31.29.59.29.81,0,.34-.21.55-.62.55-.14,0-.29-.03-.48-.07-.48-.14-.87-.2-1.16-.2-.83,0-1.05.43-1.12,1.04l-.38,3.14c-.01.08-.01.15-.01.21,0,.34.14.46.34.46.21,0,.49-.13.74-.31,1.67-1.2,3.08-1.67,4.17-1.67,1.67,0,2.58,1.08,2.58,2.35,0,1.75-1.76,3.85-5.81,3.85-.27,0-.52-.01-.78-.03Z"/>
        <path class="cls-1" d="M188.62,9.02c0-.17.01-.35.03-.55.32-3.53.6-5.07.6-5.9,0-.41-.06-.64-.22-.87-.1-.13-.14-.25-.14-.35,0-.13.08-.21.24-.21.08,0,.18.03.29.08.62.34.83.73.83,1.41,0,1.02-.48,2.69-.74,5.76-.01.14-.01.28-.01.41,0,1.67.95,2.44,2.28,2.44,1.43,0,3.29-.88,4.95-2.48.11-.11.21-.15.29-.15.07,0,.13.04.13.11s-.04.17-.13.27c-1.74,2.1-3.85,3.17-5.53,3.17s-2.86-1.02-2.86-3.14Z"/>
        <path class="cls-1" d="M207.62,7.3l-.07.03c.06.27.08.55.08.83,0,.34-.03.66-.11.97-.11.49-.42.7-.67.7-.24,0-.43-.18-.43-.5,0-.1.01-.2.06-.32.14-.45.21-.9.22-1.3-1.62.8-2.49,1.81-2.49,2.56,0,.62.59,1.06,1.82,1.06.66,0,1.51-.13,2.55-.42.15-.04.31-.06.43-.06.5,0,.88.22.88.49,0,.17-.2.36-.64.49-.9.25-1.74.35-2.45.35-1.99,0-3.21-.81-3.21-1.93,0-.95.92-2.13,3.07-3.17-.13-.8-.56-1.34-1.22-1.34s-1.46.46-2.45,1.62c-.22.25-.45.36-.66.36-.27,0-.46-.21-.46-.46,0-.17.08-.38.32-.56,1.65-1.34,2.77-2.69,3.21-3.8-.34.1-.67.14-.97.14-.34,0-.62-.07-.78-.18-.35-.24-.49-.52-.49-.73s.14-.38.34-.38c.08,0,.18.03.29.1.29.18.62.25.95.25.31,0,.6-.06.87-.15,0-.29-.08-.59-.28-.81-.11-.13-.15-.25-.15-.35,0-.18.14-.29.35-.29.17,0,.38.1.57.31.28.03.64.1.92.15.2.04.28.14.28.28,0,.11-.06.27-.13.43-.17.38-.53.7-.98.94-.25.81-.78,1.78-1.53,2.75-.04.04-.06.07-.06.1,0,.04.03.06.07.06.03,0,.06-.01.08-.03.34-.14.63-.21.91-.21.53,0,.97.27,1.29.67,1.33-1.69,2.7-2.34,3.6-2.34.59,0,.97.28.97.73,0,.74-1.05,1.92-3.91,2.97ZM206.35,1.62c.2-.11.34-.21.36-.24.04-.04.06-.07.06-.1,0-.06-.04-.08-.13-.11-.1-.03-.22-.07-.39-.08.07.15.1.34.1.53ZM207.4,6.74c2.3-1.01,3.12-1.83,3.12-2.24,0-.17-.15-.25-.39-.25-.62,0-1.86.59-2.91,2.09.07.13.13.27.18.41Z"/>
        <path class="cls-1" d="M221.64,10.8c-.17,0-.25-.07-.25-.14,0-.1.1-.18.29-.22,3.54-.63,5.04-2.68,5.04-4.26,0-1.12-.74-2.02-2.03-2.02-1.09,0-2.58.64-4.34,2.34-.49.46-1.04.64-1.53.64-.35,0-.69-.08-.95-.24-.6-.35-.81-.63-.81-.8,0-.14.14-.21.31-.21.06,0,.11,0,.17.01.29.07.55.13.8.13.49,0,.97-.2,1.78-.76,1.81-1.25,3.33-1.74,4.54-1.74,1.92,0,3,1.26,3,2.73,0,1.92-1.81,4.2-5.95,4.52h-.06Z"/>
        <path class="cls-1" d="M235.87,3.96c-.46,1.04-1.11,2.48-1.79,4.66-.18.62-.45.87-.66.87-.2,0-.34-.22-.34-.59,0-.21.06-.48.18-.77.76-1.69,1.43-3.07,1.86-4.17-.55-.03-1.05-.17-1.46-.45-.14-.1-.2-.21-.2-.31,0-.08.06-.14.15-.14.06,0,.11.01.18.04.42.21.87.29,1.32.29h.21c.18-.55.28-1.02.28-1.41,0-.22-.03-.42-.1-.6-.06-.13-.07-.24-.07-.32,0-.21.1-.32.27-.32.15,0,.35.13.56.41.18.25.28.5.28.78v.07c.43.2,1.08.42,1.58.57.22.07.36.25.36.43,0,.17-.14.36-.42.46-.64.22-1.43.43-2.21.49ZM236.18,3.26c.38-.1.73-.24.98-.38.07-.03.1-.08.1-.13,0-.03-.03-.07-.08-.1l-.66-.35c-.06.27-.18.57-.34.95ZM242.85,10.63c0,.21-.11.39-.32.39-.08,0-.18-.04-.29-.11-.73-.48-1.4-.81-1.99-1.04v.56c-.01,1.08-.98,1.61-1.93,1.61s-1.93-.55-1.93-1.57.98-1.58,2.34-1.58c.24,0,.48.01.73.04-.01-.57-.03-1.08-.03-1.51,0-.73.07-1.33.48-1.99.1-.15.18-.22.27-.22.07,0,.13.07.13.17,0,.07-.03.15-.07.25-.17.34-.22.76-.22,1.23,0,.66.11,1.42.2,2.21.69.15,1.42.41,2.12.77.38.2.55.52.55.78ZM239.45,9.62c-.38-.08-.71-.13-1.01-.13-.91,0-1.41.39-1.41.9,0,.62.59.95,1.18.95s1.18-.34,1.22-1.04c.01-.24.03-.46.03-.69ZM243.35,4.69c0,.28-.24.45-.57.45-.1,0-.2-.01-.29-.04-.35-.1-.71-.14-1.44-.15-.11,0-.17-.06-.17-.11s.07-.13.17-.17c.21-.07.57-.14.76-.17.1-.01.14-.07.14-.13,0-.04-.01-.1-.04-.17-.08-.15-.92-.95-1.34-1.19-.2-.1-.27-.2-.27-.28,0-.07.07-.11.2-.11.04,0,.1,0,.15.01,1.04.25,2.05.83,2.62,1.72.07.13.1.24.1.34Z"/>
        <path class="cls-1" d="M252.25,11.89c-.52-2.24-1.29-3.46-2.49-5.03-.15-.18-.24-.42-.24-.67,0-.15.04-.32.13-.49,1.37-2.69,2.93-3.66,2.93-4.52,0-.04,0-.1-.01-.14-.01-.08-.01-.15-.01-.22,0-.25.11-.39.27-.39.11,0,.25.08.36.24.2.25.35.59.35.94,0,.32-.13.64-.5.92-.98.71-2.34,2.16-2.86,3.42-.04.1-.06.18-.06.27,0,.13.04.25.14.36,1.7,1.98,2.55,2.97,3,5.17.01.07.03.15.03.22,0,.36-.21.56-.43.56-.24,0-.49-.2-.59-.63ZM255.73,4.33c-.38-.35-.92-.67-1.37-.81-.2-.07-.27-.17-.27-.28s.1-.21.31-.21c.07,0,.15-.01.22-.01.7,0,1.22.14,1.79.6.22.18.31.36.31.52,0,.24-.2.43-.46.43-.15,0-.35-.07-.53-.24ZM256.91,3.32c-.38-.29-.83-.53-1.26-.63-.2-.04-.29-.15-.29-.27,0-.1.1-.2.29-.22.14-.01.29-.03.43-.03.5,0,1.02.11,1.46.42.2.14.28.32.28.49,0,.24-.18.43-.45.43-.14,0-.29-.06-.46-.2Z"/>
        <path class="cls-1" d="M263.84,8.12c.67-.32,1.34-.7,2.02-1.13l.14.34c-1.09.87-2.38,1.71-3.85,2.51-.04.35-.11.53-.22.53-.15,0-.39-.36-.71-1.09.71-.27,1.33-.53,1.85-.77v-4.33h-1.69l-.11-.35h1.81V.25c.91.03,1.37.14,1.37.34,0,.1-.2.24-.59.39v2.84h.52l.64-.92c.28.32.55.66.79,1.01l-.15.27h-1.79v3.95ZM272.18,7.31l.5-.6c.57.43.85.7.85.83,0,.07-.03.11-.1.15l-.36.25c-.01,2.13-.27,3.49-.76,4.09-.32.39-.79.59-1.37.59,0-.24-.14-.43-.41-.56-.17-.07-.59-.18-1.27-.32v-.36c.71.11,1.29.17,1.72.17.48,0,.78-.22.92-.69.21-.69.34-1.75.38-3.19h-.92l-.14.35c-.8,2-2.42,3.52-4.88,4.54l-.22-.29c2.14-1.11,3.59-2.65,4.36-4.59h-1.21c-.92,1.67-2.34,2.9-4.26,3.73l-.21-.31c1.61-.87,2.8-2,3.57-3.42h-1.13c-.74.83-1.61,1.5-2.61,2.02l-.24-.28c1.36-.88,2.35-1.99,3.01-3.33h-2.41l-.14-.35h7.51l.71-.84c.31.25.6.56.9.92l-.14.27h-5.5c-.27.49-.53.9-.8,1.25h4.64ZM271.14.77l.53-.6c.55.42.83.69.83.81,0,.04-.03.1-.1.14l-.35.22v3.66h-.78v-.59h-3.96v.67h-.79V.28c.27.13.59.28.95.49h3.67ZM267.3,2.34h3.96v-1.22h-3.96v1.22ZM271.27,2.69h-3.96v1.37h3.96v-1.37Z"/>
        <path class="cls-1" d="M281.46,3.78l.52-.67c.55.43.81.73.81.88,0,.07-.04.13-.11.17l-.31.2v4.05h-.8v-.94h-2.79c-.1,2.23-.66,3.91-1.65,5.07l-.29-.22c.77-1.27,1.15-3.07,1.15-5.38v-3.63c.35.15.66.31.92.48h2.55ZM282.31.53c.27.24.56.57.9.99l-.13.27h-5.63l-.13-.35h4.3l.69-.91ZM278.8,7.12h2.77v-2.98h-2.77v2.98ZM284.61,5.52c-.07,3.21-1.02,5.58-2.87,7.13l-.27-.25c1.54-1.72,2.31-4.06,2.31-7.02V1.39c.38.17.66.31.84.41,1.34-.41,2.44-.9,3.26-1.47.63.41.94.69.94.85,0,.1-.1.14-.28.14-.1,0-.22-.01-.41-.04-1.16.41-2.31.7-3.46.88h-.07v3.01h3.53l.67-.92c.29.27.59.6.88,1.01l-.15.27h-1.97v6.99h-.83v-6.99h-2.13Z"/>
        <path class="cls-1" d="M292.57,10.8c0-1.08.9-1.96,1.98-1.96s1.96.88,1.96,1.96-.88,1.98-1.96,1.98-1.98-.9-1.98-1.98ZM296.03,10.8c0-.83-.66-1.48-1.48-1.48s-1.5.66-1.5,1.48.66,1.5,1.5,1.5,1.48-.67,1.48-1.5Z"/>
      </g>
    </g>
  </g>
</svg>