<svg xmlns="http://www.w3.org/2000/svg" xmlns:xlink="http://www.w3.org/1999/xlink" width="40" zoomAndPan="magnify" viewBox="0 0 30 30.000001" height="40" preserveAspectRatio="xMidYMid meet" version="1.0"><defs><clipPath id="8bf7a64c81"><path d="M 1.195312 1.453125 L 28.773438 1.453125 L 28.773438 27 L 1.195312 27 Z M 1.195312 1.453125 " clip-rule="nonzero"/></clipPath><clipPath id="141f341c18"><path d="M 25 19 L 28.773438 19 L 28.773438 22 L 25 22 Z M 25 19 " clip-rule="nonzero"/></clipPath><clipPath id="91ec4e3bd8"><path d="M 25 16 L 28.773438 16 L 28.773438 20 L 25 20 Z M 25 16 " clip-rule="nonzero"/></clipPath><clipPath id="18a90bf1c7"><path d="M 25 14 L 28.773438 14 L 28.773438 17 L 25 17 Z M 25 14 " clip-rule="nonzero"/></clipPath><clipPath id="8bd1f1c284"><path d="M 25 11 L 28.773438 11 L 28.773438 15 L 25 15 Z M 25 11 " clip-rule="nonzero"/></clipPath><clipPath id="9cb4c8c7c1"><path d="M 25 9 L 28.773438 9 L 28.773438 12 L 25 12 Z M 25 9 " clip-rule="nonzero"/></clipPath><clipPath id="7582a0ab20"><path d="M 25 6 L 28.773438 6 L 28.773438 10 L 25 10 Z M 25 6 " clip-rule="nonzero"/></clipPath><clipPath id="729238526f"><path d="M 25 4 L 28.773438 4 L 28.773438 7 L 25 7 Z M 25 4 " clip-rule="nonzero"/></clipPath><clipPath id="7dfd299ef9"><path d="M 25 1.453125 L 28.773438 1.453125 L 28.773438 5 L 25 5 Z M 25 1.453125 " clip-rule="nonzero"/></clipPath><clipPath id="a278d96bf8"><path d="M 6 1.453125 L 26 1.453125 L 26 22 L 6 22 Z M 6 1.453125 " clip-rule="nonzero"/></clipPath><clipPath id="4a05482b72"><path d="M 1.195312 17 L 10 17 L 10 26 L 1.195312 26 Z M 1.195312 17 " clip-rule="nonzero"/></clipPath><clipPath id="fcbd2f3c5b"><path d="M 4 1.453125 L 7 1.453125 L 7 5 L 4 5 Z M 4 1.453125 " clip-rule="nonzero"/></clipPath><clipPath id="a7566c7734"><path d="M 1.195312 1.453125 L 28.773438 1.453125 L 28.773438 27.582031 L 1.195312 27.582031 Z M 1.195312 1.453125 " clip-rule="nonzero"/></clipPath></defs><g clip-path="url(#8bf7a64c81)"><path fill="#d6eae8" d="M 28.554688 6.722656 C 27.871094 5.875 27.871094 5.027344 28.554688 4.179688 L 25.835938 1.671875 C 19.6875 2.632812 13.34375 2.542969 6.851562 1.671875 L 4.132812 4.179688 C 4.6875 5.140625 4.6875 5.988281 4.132812 6.722656 C 4.5 7.726562 4.59375 8.617188 4.132812 9.269531 C 4.796875 10.117188 4.796875 10.964844 4.132812 11.8125 C 4.765625 12.523438 4.605469 13.40625 4.132812 14.355469 C 4.46875 15.25 4.507812 16.101562 4.132812 16.902344 C 4.402344 17.355469 4.46875 17.777344 4.132812 18.140625 L 1.414062 21.796875 C 3.835938 25.941406 6.378906 25.941406 9.039062 21.796875 C 12.28125 27.273438 15.695312 27.578125 19.308594 21.796875 C 21.28125 20.589844 23.5 20.859375 25.835938 21.796875 L 28.554688 19.445312 C 27.613281 18.554688 27.867188 17.71875 28.554688 16.902344 C 27.914062 16.027344 27.824219 15.175781 28.554688 14.355469 C 27.945312 13.570312 28.019531 12.714844 28.554688 11.8125 C 28.097656 10.9375 28.035156 10.085938 28.554688 9.269531 C 27.589844 8.417969 27.589844 7.570312 28.554688 6.722656 Z M 28.554688 6.722656 " fill-opacity="1" fill-rule="nonzero"/></g><g clip-path="url(#141f341c18)"><path fill="#5d5560" d="M 28.554688 19.445312 L 28.554688 19.796875 C 28.554688 20.902344 27.660156 21.796875 26.554688 21.796875 L 25.835938 21.796875 L 25.835938 19.445312 Z M 28.554688 19.445312 " fill-opacity="1" fill-rule="nonzero"/></g><g clip-path="url(#91ec4e3bd8)"><path fill="#d6eae8" d="M 25.835938 16.902344 L 28.554688 16.902344 L 28.554688 19.445312 L 25.835938 19.445312 Z M 25.835938 16.902344 " fill-opacity="1" fill-rule="nonzero"/></g><g clip-path="url(#18a90bf1c7)"><path fill="#5d5560" d="M 25.835938 14.355469 L 28.554688 14.355469 L 28.554688 16.902344 L 25.835938 16.902344 Z M 25.835938 14.355469 " fill-opacity="1" fill-rule="nonzero"/></g><g clip-path="url(#8bd1f1c284)"><path fill="#d6eae8" d="M 25.835938 11.8125 L 28.554688 11.8125 L 28.554688 14.355469 L 25.835938 14.355469 Z M 25.835938 11.8125 " fill-opacity="1" fill-rule="nonzero"/></g><g clip-path="url(#9cb4c8c7c1)"><path fill="#5d5560" d="M 25.835938 9.269531 L 28.554688 9.269531 L 28.554688 11.8125 L 25.835938 11.8125 Z M 25.835938 9.269531 " fill-opacity="1" fill-rule="nonzero"/></g><g clip-path="url(#7582a0ab20)"><path fill="#d6eae8" d="M 25.835938 6.722656 L 28.554688 6.722656 L 28.554688 9.269531 L 25.835938 9.269531 Z M 25.835938 6.722656 " fill-opacity="1" fill-rule="nonzero"/></g><g clip-path="url(#729238526f)"><path fill="#5d5560" d="M 25.835938 4.179688 L 28.554688 4.179688 L 28.554688 6.722656 L 25.835938 6.722656 Z M 25.835938 4.179688 " fill-opacity="1" fill-rule="nonzero"/></g><g clip-path="url(#7dfd299ef9)"><path fill="#d6eae8" d="M 28.554688 3.675781 L 28.554688 4.179688 L 25.835938 4.179688 L 25.835938 1.671875 L 26.554688 1.671875 C 27.660156 1.671875 28.554688 2.570312 28.554688 3.675781 Z M 28.554688 3.675781 " fill-opacity="1" fill-rule="nonzero"/></g><g clip-path="url(#a278d96bf8)"><path fill="#ffc05a" d="M 25.835938 19.445312 L 25.835938 21.796875 L 19.308594 21.796875 C 19.308594 18.960938 17.007812 16.660156 14.171875 16.660156 C 11.339844 16.660156 9.039062 18.960938 9.039062 21.796875 C 9.039062 20.273438 8.144531 18.957031 6.851562 18.347656 L 6.851562 1.671875 L 25.835938 1.671875 Z M 25.835938 19.445312 " fill-opacity="1" fill-rule="nonzero"/></g><path fill="#e15c63" d="M 20.945312 10.960938 C 21.550781 11.308594 21.550781 12.183594 20.945312 12.535156 L 14.316406 16.363281 C 13.710938 16.714844 12.957031 16.277344 12.957031 15.578125 L 12.957031 7.917969 C 12.957031 7.21875 13.710938 6.78125 14.316406 7.132812 Z M 20.945312 10.960938 " fill-opacity="1" fill-rule="nonzero"/><path fill="#655f68" d="M 14.171875 16.660156 C 17.007812 16.660156 19.308594 18.960938 19.308594 21.796875 C 19.308594 24.636719 17.007812 26.9375 14.171875 26.9375 C 11.339844 26.9375 9.039062 24.636719 9.039062 21.796875 C 9.039062 18.960938 11.339844 16.660156 14.171875 16.660156 Z M 17.75 22.960938 C 17.90625 22.472656 17.640625 21.945312 17.148438 21.785156 C 16.660156 21.625 16.136719 21.894531 15.976562 22.382812 C 15.816406 22.875 16.085938 23.402344 16.574219 23.558594 C 17.0625 23.71875 17.589844 23.449219 17.75 22.960938 Z M 16.589844 20.058594 C 16.890625 19.640625 16.800781 19.058594 16.382812 18.753906 C 15.96875 18.453125 15.382812 18.542969 15.082031 18.960938 C 14.777344 19.378906 14.871094 19.960938 15.289062 20.265625 C 15.703125 20.566406 16.285156 20.476562 16.589844 20.058594 Z M 15.105469 24.628906 C 15.105469 24.113281 14.6875 23.695312 14.171875 23.695312 C 13.660156 23.695312 13.242188 24.113281 13.242188 24.628906 C 13.242188 25.144531 13.660156 25.558594 14.171875 25.558594 C 14.6875 25.558594 15.105469 25.144531 15.105469 24.628906 Z M 13.058594 20.265625 C 13.476562 19.960938 13.570312 19.378906 13.265625 18.960938 C 12.964844 18.542969 12.382812 18.453125 11.964844 18.753906 C 11.546875 19.058594 11.457031 19.640625 11.757812 20.058594 C 12.0625 20.476562 12.644531 20.566406 13.058594 20.265625 Z M 11.773438 23.558594 C 12.261719 23.402344 12.53125 22.875 12.371094 22.382812 C 12.214844 21.894531 11.6875 21.625 11.199219 21.785156 C 10.707031 21.945312 10.441406 22.472656 10.597656 22.960938 C 10.757812 23.449219 11.285156 23.71875 11.773438 23.558594 Z M 11.773438 23.558594 " fill-opacity="1" fill-rule="nonzero"/><path fill="#e7f2f1" d="M 17.148438 21.785156 C 17.640625 21.945312 17.90625 22.472656 17.75 22.960938 C 17.589844 23.449219 17.0625 23.71875 16.574219 23.558594 C 16.085938 23.402344 15.816406 22.875 15.976562 22.382812 C 16.136719 21.894531 16.660156 21.625 17.148438 21.785156 Z M 17.148438 21.785156 " fill-opacity="1" fill-rule="nonzero"/><path fill="#e7f2f1" d="M 16.382812 18.753906 C 16.800781 19.058594 16.890625 19.640625 16.589844 20.058594 C 16.285156 20.476562 15.703125 20.566406 15.289062 20.265625 C 14.871094 19.960938 14.777344 19.378906 15.082031 18.960938 C 15.382812 18.542969 15.96875 18.453125 16.382812 18.753906 Z M 16.382812 18.753906 " fill-opacity="1" fill-rule="nonzero"/><path fill="#e7f2f1" d="M 14.171875 23.695312 C 14.6875 23.695312 15.105469 24.113281 15.105469 24.628906 C 15.105469 25.144531 14.6875 25.558594 14.171875 25.558594 C 13.660156 25.558594 13.242188 25.144531 13.242188 24.628906 C 13.242188 24.113281 13.660156 23.695312 14.171875 23.695312 Z M 14.171875 23.695312 " fill-opacity="1" fill-rule="nonzero"/><path fill="#e7f2f1" d="M 13.265625 18.960938 C 13.570312 19.378906 13.476562 19.960938 13.058594 20.265625 C 12.644531 20.566406 12.0625 20.476562 11.757812 20.058594 C 11.457031 19.640625 11.546875 19.058594 11.964844 18.753906 C 12.382812 18.453125 12.964844 18.542969 13.265625 18.960938 Z M 13.265625 18.960938 " fill-opacity="1" fill-rule="nonzero"/><path fill="#e7f2f1" d="M 12.371094 22.382812 C 12.53125 22.875 12.261719 23.402344 11.773438 23.558594 C 11.285156 23.71875 10.757812 23.449219 10.597656 22.960938 C 10.441406 22.472656 10.707031 21.945312 11.199219 21.785156 C 11.6875 21.625 12.214844 21.894531 12.371094 22.382812 Z M 12.371094 22.382812 " fill-opacity="1" fill-rule="nonzero"/><g clip-path="url(#4a05482b72)"><path fill="#655f68" d="M 6.851562 18.347656 C 8.144531 18.957031 9.039062 20.273438 9.039062 21.796875 C 9.039062 23.90625 7.332031 25.617188 5.226562 25.617188 C 3.121094 25.617188 1.414062 23.90625 1.414062 21.796875 C 1.414062 20.070312 2.558594 18.613281 4.132812 18.140625 C 4.476562 18.039062 4.84375 17.980469 5.226562 17.980469 C 5.808594 17.980469 6.359375 18.113281 6.851562 18.34375 Z M 7.890625 21.796875 C 7.890625 21.421875 7.585938 21.121094 7.210938 21.121094 C 6.835938 21.121094 6.53125 21.421875 6.53125 21.796875 C 6.53125 22.171875 6.835938 22.476562 7.210938 22.476562 C 7.585938 22.476562 7.890625 22.171875 7.890625 21.796875 Z M 5.90625 19.8125 C 5.90625 19.4375 5.601562 19.132812 5.226562 19.132812 C 4.851562 19.132812 4.546875 19.4375 4.546875 19.8125 C 4.546875 20.1875 4.851562 20.492188 5.226562 20.492188 C 5.601562 20.492188 5.90625 20.1875 5.90625 19.8125 Z M 5.90625 23.785156 C 5.90625 23.410156 5.601562 23.105469 5.226562 23.105469 C 4.851562 23.105469 4.546875 23.410156 4.546875 23.785156 C 4.546875 24.160156 4.851562 24.464844 5.226562 24.464844 C 5.601562 24.464844 5.90625 24.160156 5.90625 23.785156 Z M 3.917969 21.796875 C 3.917969 21.421875 3.617188 21.121094 3.242188 21.121094 C 2.867188 21.121094 2.5625 21.421875 2.5625 21.796875 C 2.5625 22.171875 2.867188 22.476562 3.242188 22.476562 C 3.617188 22.476562 3.917969 22.171875 3.917969 21.796875 Z M 3.917969 21.796875 " fill-opacity="1" fill-rule="nonzero"/></g><path fill="#e7f2f1" d="M 7.890625 21.796875 C 7.890625 21.984375 7.824219 22.144531 7.691406 22.277344 C 7.558594 22.410156 7.398438 22.476562 7.210938 22.476562 C 7.023438 22.476562 6.863281 22.410156 6.730469 22.277344 C 6.597656 22.144531 6.53125 21.984375 6.53125 21.796875 C 6.53125 21.609375 6.597656 21.449219 6.730469 21.316406 C 6.863281 21.1875 7.023438 21.121094 7.210938 21.121094 C 7.398438 21.121094 7.558594 21.1875 7.691406 21.316406 C 7.824219 21.449219 7.890625 21.609375 7.890625 21.796875 Z M 7.890625 21.796875 " fill-opacity="1" fill-rule="nonzero"/><path fill="#d6eae8" d="M 6.851562 16.902344 L 6.851562 18.34375 C 6.359375 18.113281 5.808594 17.980469 5.226562 17.980469 C 4.84375 17.980469 4.476562 18.039062 4.132812 18.140625 L 4.132812 16.902344 Z M 6.851562 16.902344 " fill-opacity="1" fill-rule="nonzero"/><path fill="#5d5560" d="M 4.132812 14.355469 L 6.851562 14.355469 L 6.851562 16.902344 L 4.132812 16.902344 Z M 4.132812 14.355469 " fill-opacity="1" fill-rule="nonzero"/><path fill="#d6eae8" d="M 4.132812 11.8125 L 6.851562 11.8125 L 6.851562 14.355469 L 4.132812 14.355469 Z M 4.132812 11.8125 " fill-opacity="1" fill-rule="nonzero"/><path fill="#5d5560" d="M 4.132812 9.269531 L 6.851562 9.269531 L 6.851562 11.8125 L 4.132812 11.8125 Z M 4.132812 9.269531 " fill-opacity="1" fill-rule="nonzero"/><path fill="#d6eae8" d="M 4.132812 6.722656 L 6.851562 6.722656 L 6.851562 9.269531 L 4.132812 9.269531 Z M 4.132812 6.722656 " fill-opacity="1" fill-rule="nonzero"/><path fill="#5d5560" d="M 4.132812 4.179688 L 6.851562 4.179688 L 6.851562 6.722656 L 4.132812 6.722656 Z M 4.132812 4.179688 " fill-opacity="1" fill-rule="nonzero"/><g clip-path="url(#fcbd2f3c5b)"><path fill="#d6eae8" d="M 6.851562 1.671875 L 6.851562 4.179688 L 4.132812 4.179688 L 4.132812 3.675781 C 4.132812 2.570312 5.027344 1.671875 6.132812 1.671875 Z M 6.851562 1.671875 " fill-opacity="1" fill-rule="nonzero"/></g><path fill="#e7f2f1" d="M 5.226562 19.132812 C 5.601562 19.132812 5.90625 19.4375 5.90625 19.8125 C 5.90625 20.1875 5.601562 20.492188 5.226562 20.492188 C 4.851562 20.492188 4.546875 20.1875 4.546875 19.8125 C 4.546875 19.4375 4.851562 19.132812 5.226562 19.132812 Z M 5.226562 19.132812 " fill-opacity="1" fill-rule="nonzero"/><path fill="#e7f2f1" d="M 5.90625 23.785156 C 5.90625 23.972656 5.839844 24.132812 5.707031 24.265625 C 5.574219 24.398438 5.414062 24.464844 5.226562 24.464844 C 5.039062 24.464844 4.878906 24.398438 4.746094 24.265625 C 4.613281 24.132812 4.546875 23.972656 4.546875 23.785156 C 4.546875 23.597656 4.613281 23.4375 4.746094 23.304688 C 4.878906 23.171875 5.039062 23.105469 5.226562 23.105469 C 5.414062 23.105469 5.574219 23.171875 5.707031 23.304688 C 5.839844 23.4375 5.90625 23.597656 5.90625 23.785156 Z M 5.90625 23.785156 " fill-opacity="1" fill-rule="nonzero"/><path fill="#e7f2f1" d="M 3.242188 21.121094 C 3.617188 21.121094 3.917969 21.421875 3.917969 21.796875 C 3.917969 22.171875 3.617188 22.476562 3.242188 22.476562 C 2.867188 22.476562 2.5625 22.171875 2.5625 21.796875 C 2.5625 21.421875 2.867188 21.121094 3.242188 21.121094 Z M 3.242188 21.121094 " fill-opacity="1" fill-rule="nonzero"/><path fill="#524956" d="M 6.851562 16.445312 L 6.851562 16.902344 L 4.132812 16.902344 L 4.132812 16.878906 C 4.390625 16.730469 4.667969 16.609375 4.960938 16.519531 C 5.304688 16.417969 5.671875 16.363281 6.054688 16.363281 C 6.328125 16.363281 6.59375 16.390625 6.851562 16.445312 Z M 6.851562 16.445312 " fill-opacity="1" fill-rule="nonzero"/><path fill="#c3ddda" d="M 6.851562 16.902344 L 6.851562 18.34375 C 6.359375 18.113281 5.808594 17.980469 5.226562 17.980469 C 4.84375 17.980469 4.476562 18.039062 4.132812 18.140625 L 4.132812 16.902344 Z M 6.851562 16.902344 " fill-opacity="1" fill-rule="nonzero"/><path fill="#f9b132" d="M 9.742188 19.203125 C 9.296875 19.964844 9.039062 20.851562 9.039062 21.796875 C 9.039062 20.273438 8.144531 18.957031 6.851562 18.347656 L 6.851562 16.445312 C 7.140625 16.507812 7.417969 16.601562 7.679688 16.726562 C 8.6875 17.203125 9.453125 18.105469 9.742188 19.203125 Z M 9.742188 19.203125 " fill-opacity="1" fill-rule="nonzero"/><path fill="#d14b62" d="M 16.316406 15.210938 L 14.316406 16.363281 C 13.710938 16.714844 12.957031 16.277344 12.957031 15.578125 L 12.957031 15.464844 C 13.582031 15.191406 14.273438 15.039062 15 15.039062 C 15.457031 15.039062 15.898438 15.097656 16.316406 15.210938 Z M 16.316406 15.210938 " fill-opacity="1" fill-rule="nonzero"/><path fill="#f9b132" d="M 20.136719 20.179688 C 20.136719 20.746094 20.042969 21.289062 19.875 21.796875 L 19.308594 21.796875 C 19.308594 18.960938 17.007812 16.660156 14.171875 16.660156 C 12.503906 16.660156 11.023438 17.457031 10.085938 18.6875 C 10.523438 17.238281 11.585938 16.058594 12.957031 15.464844 L 12.957031 15.578125 C 12.957031 16.277344 13.710938 16.714844 14.316406 16.363281 L 16.316406 15.210938 C 18.515625 15.789062 20.136719 17.796875 20.136719 20.179688 Z M 20.136719 20.179688 " fill-opacity="1" fill-rule="nonzero"/><g clip-path="url(#a7566c7734)"><path fill="#3a322b" d="M 26.554688 1.453125 L 6.132812 1.453125 C 4.910156 1.453125 3.914062 2.449219 3.914062 3.675781 L 3.914062 17.984375 C 2.332031 18.53125 1.195312 20.03125 1.195312 21.796875 C 1.195312 24.023438 3.003906 25.835938 5.226562 25.835938 C 6.957031 25.835938 8.4375 24.738281 9.007812 23.199219 C 9.625 25.476562 11.707031 27.15625 14.175781 27.15625 C 17.050781 27.15625 19.40625 24.871094 19.523438 22.015625 L 26.554688 22.015625 C 27.777344 22.015625 28.773438 21.019531 28.773438 19.796875 L 28.773438 3.675781 C 28.773438 2.449219 27.777344 1.453125 26.554688 1.453125 Z M 26.054688 17.121094 L 28.335938 17.121094 L 28.335938 19.226562 L 26.054688 19.226562 Z M 26.054688 16.683594 L 26.054688 14.578125 L 28.335938 14.578125 L 28.335938 16.683594 Z M 26.054688 14.136719 L 26.054688 12.03125 L 28.335938 12.03125 L 28.335938 14.136719 Z M 26.054688 11.59375 L 26.054688 9.488281 L 28.335938 9.488281 L 28.335938 11.59375 Z M 26.054688 9.046875 L 26.054688 6.941406 L 28.335938 6.941406 L 28.335938 9.046875 Z M 26.054688 6.503906 L 26.054688 4.398438 L 28.335938 4.398438 L 28.335938 6.503906 Z M 25.617188 21.578125 L 19.523438 21.578125 C 19.414062 18.867188 17.277344 16.667969 14.59375 16.457031 L 21.054688 12.726562 C 21.410156 12.519531 21.621094 12.15625 21.621094 11.746094 C 21.621094 11.339844 21.410156 10.976562 21.054688 10.769531 L 14.425781 6.941406 C 14.074219 6.738281 13.652344 6.738281 13.300781 6.941406 C 12.949219 7.148438 12.738281 7.511719 12.738281 7.917969 L 12.738281 15.578125 C 12.738281 15.964844 12.925781 16.3125 13.25 16.519531 C 11.199219 16.878906 9.546875 18.410156 9.007812 20.394531 C 8.65625 19.449219 7.960938 18.671875 7.070312 18.210938 L 7.070312 1.890625 L 25.617188 1.890625 Z M 13.175781 15.578125 L 13.175781 7.917969 C 13.175781 7.671875 13.304688 7.445312 13.519531 7.320312 C 13.628906 7.257812 13.746094 7.226562 13.863281 7.226562 C 13.980469 7.226562 14.101562 7.257812 14.207031 7.320312 L 20.835938 11.148438 C 21.050781 11.273438 21.179688 11.5 21.179688 11.746094 C 21.179688 11.996094 21.050781 12.222656 20.835938 12.34375 L 14.207031 16.175781 C 13.992188 16.296875 13.734375 16.296875 13.519531 16.171875 C 13.304688 16.050781 13.175781 15.824219 13.175781 15.578125 Z M 6.632812 6.503906 L 4.351562 6.503906 L 4.351562 4.398438 L 6.632812 4.398438 Z M 6.632812 6.941406 L 6.632812 9.046875 L 4.351562 9.046875 L 4.351562 6.941406 Z M 6.632812 9.488281 L 6.632812 11.59375 L 4.351562 11.59375 L 4.351562 9.488281 Z M 6.632812 12.03125 L 6.632812 14.136719 L 4.351562 14.136719 L 4.351562 12.03125 Z M 6.632812 14.578125 L 6.632812 16.683594 L 4.351562 16.683594 L 4.351562 14.578125 Z M 6.132812 1.890625 L 6.632812 1.890625 L 6.632812 3.960938 L 4.351562 3.960938 L 4.351562 3.675781 C 4.351562 2.691406 5.148438 1.890625 6.132812 1.890625 Z M 4.351562 17.121094 L 6.632812 17.121094 L 6.632812 18.015625 C 6.195312 17.851562 5.722656 17.761719 5.226562 17.761719 C 4.925781 17.761719 4.632812 17.796875 4.351562 17.859375 Z M 5.226562 25.394531 C 3.242188 25.394531 1.632812 23.78125 1.632812 21.796875 C 1.632812 19.8125 3.242188 18.199219 5.226562 18.199219 C 7.207031 18.199219 8.820312 19.816406 8.820312 21.796875 C 8.820312 23.78125 7.207031 25.394531 5.226562 25.394531 Z M 14.175781 26.71875 C 11.464844 26.71875 9.257812 24.511719 9.257812 21.796875 C 9.257812 19.085938 11.464844 16.878906 14.175781 16.878906 C 16.882812 16.878906 19.089844 19.085938 19.089844 21.796875 C 19.089844 24.511719 16.882812 26.71875 14.175781 26.71875 Z M 26.554688 21.578125 L 26.054688 21.578125 L 26.054688 19.664062 L 28.335938 19.664062 L 28.335938 19.796875 C 28.335938 20.78125 27.539062 21.578125 26.554688 21.578125 Z M 28.335938 3.960938 L 26.054688 3.960938 L 26.054688 1.890625 L 26.554688 1.890625 C 27.539062 1.890625 28.335938 2.691406 28.335938 3.675781 Z M 14.175781 23.476562 C 13.539062 23.476562 13.023438 23.992188 13.023438 24.628906 C 13.023438 25.261719 13.539062 25.777344 14.175781 25.777344 C 14.808594 25.777344 15.324219 25.261719 15.324219 24.628906 C 15.324219 23.992188 14.808594 23.476562 14.175781 23.476562 Z M 14.175781 25.339844 C 13.78125 25.339844 13.460938 25.019531 13.460938 24.628906 C 13.460938 24.234375 13.78125 23.914062 14.175781 23.914062 C 14.566406 23.914062 14.886719 24.234375 14.886719 24.628906 C 14.886719 25.019531 14.566406 25.339844 14.175781 25.339844 Z M 15.769531 22.316406 C 15.570312 22.921875 15.902344 23.570312 16.507812 23.769531 C 16.625 23.804688 16.742188 23.824219 16.863281 23.824219 C 17.347656 23.824219 17.800781 23.515625 17.957031 23.027344 C 18.050781 22.734375 18.027344 22.421875 17.886719 22.148438 C 17.75 21.875 17.511719 21.671875 17.21875 21.578125 C 16.613281 21.382812 15.964844 21.710938 15.769531 22.316406 Z M 17.496094 22.347656 C 17.585938 22.519531 17.597656 22.710938 17.539062 22.894531 C 17.417969 23.265625 17.015625 23.472656 16.640625 23.351562 C 16.269531 23.230469 16.0625 22.824219 16.183594 22.453125 C 16.28125 22.152344 16.5625 21.957031 16.863281 21.957031 C 16.9375 21.957031 17.007812 21.96875 17.082031 21.992188 C 17.265625 22.050781 17.410156 22.179688 17.496094 22.347656 Z M 15.160156 20.441406 C 15.363281 20.589844 15.597656 20.660156 15.832031 20.660156 C 16.191406 20.660156 16.542969 20.496094 16.765625 20.1875 C 16.945312 19.9375 17.019531 19.632812 16.972656 19.328125 C 16.925781 19.027344 16.761719 18.757812 16.511719 18.578125 C 16 18.203125 15.277344 18.320312 14.90625 18.832031 C 14.722656 19.082031 14.652344 19.386719 14.699219 19.691406 C 14.746094 19.992188 14.910156 20.261719 15.160156 20.441406 Z M 15.257812 19.089844 C 15.398438 18.898438 15.617188 18.796875 15.835938 18.796875 C 15.980469 18.796875 16.128906 18.839844 16.253906 18.933594 C 16.410156 19.042969 16.511719 19.210938 16.539062 19.398438 C 16.570312 19.585938 16.523438 19.773438 16.414062 19.929688 C 16.179688 20.246094 15.734375 20.316406 15.417969 20.085938 C 15.261719 19.976562 15.160156 19.808594 15.132812 19.621094 C 15.101562 19.433594 15.148438 19.246094 15.257812 19.089844 Z M 12.515625 20.660156 C 12.75 20.660156 12.984375 20.589844 13.1875 20.441406 C 13.4375 20.261719 13.601562 19.992188 13.648438 19.691406 C 13.695312 19.386719 13.625 19.082031 13.445312 18.832031 C 13.070312 18.320312 12.347656 18.203125 11.835938 18.578125 C 11.324219 18.949219 11.207031 19.671875 11.582031 20.1875 C 11.804688 20.496094 12.15625 20.660156 12.515625 20.660156 Z M 12.09375 18.933594 C 12.410156 18.699219 12.859375 18.773438 13.089844 19.089844 C 13.203125 19.246094 13.246094 19.433594 13.214844 19.621094 C 13.1875 19.808594 13.085938 19.976562 12.929688 20.085938 C 12.613281 20.316406 12.167969 20.246094 11.9375 19.929688 C 11.703125 19.609375 11.777344 19.164062 12.09375 18.933594 Z M 12.007812 21.644531 C 11.734375 21.507812 11.421875 21.480469 11.128906 21.578125 C 10.527344 21.773438 10.195312 22.425781 10.390625 23.027344 C 10.550781 23.515625 11 23.824219 11.488281 23.824219 C 11.605469 23.824219 11.722656 23.804688 11.839844 23.769531 C 12.445312 23.570312 12.777344 22.921875 12.582031 22.316406 C 12.484375 22.023438 12.28125 21.785156 12.007812 21.644531 Z M 11.707031 23.351562 C 11.523438 23.410156 11.332031 23.394531 11.160156 23.308594 C 10.992188 23.222656 10.867188 23.074219 10.808594 22.894531 C 10.6875 22.519531 10.890625 22.117188 11.265625 21.992188 C 11.339844 21.96875 11.414062 21.957031 11.484375 21.957031 C 11.785156 21.957031 12.066406 22.152344 12.164062 22.453125 C 12.285156 22.824219 12.078125 23.230469 11.707031 23.351562 Z M 5.226562 22.886719 C 4.730469 22.886719 4.328125 23.289062 4.328125 23.785156 C 4.328125 24.28125 4.730469 24.683594 5.226562 24.683594 C 5.722656 24.683594 6.125 24.28125 6.125 23.785156 C 6.125 23.289062 5.722656 22.886719 5.226562 22.886719 Z M 5.226562 24.246094 C 4.972656 24.246094 4.765625 24.039062 4.765625 23.785156 C 4.765625 23.53125 4.972656 23.324219 5.226562 23.324219 C 5.480469 23.324219 5.6875 23.53125 5.6875 23.785156 C 5.6875 24.039062 5.480469 24.246094 5.226562 24.246094 Z M 6.3125 21.796875 C 6.3125 22.292969 6.714844 22.695312 7.210938 22.695312 C 7.707031 22.695312 8.109375 22.292969 8.109375 21.796875 C 8.109375 21.304688 7.707031 20.898438 7.210938 20.898438 C 6.714844 20.898438 6.3125 21.304688 6.3125 21.796875 Z M 7.671875 21.796875 C 7.671875 22.050781 7.464844 22.257812 7.210938 22.257812 C 6.957031 22.257812 6.75 22.050781 6.75 21.796875 C 6.75 21.542969 6.957031 21.339844 7.210938 21.339844 C 7.464844 21.339844 7.671875 21.542969 7.671875 21.796875 Z M 5.226562 18.914062 C 4.730469 18.914062 4.328125 19.316406 4.328125 19.8125 C 4.328125 20.304688 4.730469 20.710938 5.226562 20.710938 C 5.722656 20.710938 6.125 20.304688 6.125 19.8125 C 6.125 19.316406 5.722656 18.914062 5.226562 18.914062 Z M 5.226562 20.269531 C 4.972656 20.269531 4.765625 20.066406 4.765625 19.8125 C 4.765625 19.558594 4.972656 19.351562 5.226562 19.351562 C 5.480469 19.351562 5.6875 19.558594 5.6875 19.8125 C 5.6875 20.066406 5.480469 20.269531 5.226562 20.269531 Z M 3.242188 20.898438 C 2.746094 20.898438 2.34375 21.304688 2.34375 21.796875 C 2.34375 22.292969 2.746094 22.695312 3.242188 22.695312 C 3.734375 22.695312 4.136719 22.292969 4.136719 21.796875 C 4.136719 21.304688 3.734375 20.898438 3.242188 20.898438 Z M 3.242188 22.257812 C 2.988281 22.257812 2.78125 22.050781 2.78125 21.796875 C 2.78125 21.542969 2.988281 21.339844 3.242188 21.339844 C 3.492188 21.339844 3.699219 21.542969 3.699219 21.796875 C 3.699219 22.050781 3.492188 22.257812 3.242188 22.257812 Z M 3.242188 22.257812 " fill-opacity="1" fill-rule="nonzero"/></g></svg>