<svg xmlns="http://www.w3.org/2000/svg" xmlns:xlink="http://www.w3.org/1999/xlink" width="40" zoomAndPan="magnify" viewBox="0 0 30 30.000001" height="40" preserveAspectRatio="xMidYMid meet" version="1.0"><defs><clipPath id="b7f5a71a15"><path d="M 1.019531 20 L 29.324219 20 L 29.324219 24 L 1.019531 24 Z M 1.019531 20 " clip-rule="nonzero"/></clipPath><clipPath id="d27fe09397"><path d="M 1.019531 23 L 29.324219 23 L 29.324219 24.847656 L 1.019531 24.847656 Z M 1.019531 23 " clip-rule="nonzero"/></clipPath><clipPath id="5c9f721f47"><path d="M 1.019531 23 L 29 23 L 29 24.847656 L 1.019531 24.847656 Z M 1.019531 23 " clip-rule="nonzero"/></clipPath><clipPath id="2b38ea99f7"><path d="M 3 4.527344 L 27 4.527344 L 27 21 L 3 21 Z M 3 4.527344 " clip-rule="nonzero"/></clipPath><clipPath id="3999e5fe39"><path d="M 3 4.527344 L 27 4.527344 L 27 20 L 3 20 Z M 3 4.527344 " clip-rule="nonzero"/></clipPath></defs><g clip-path="url(#b7f5a71a15)"><path fill="#192c37" d="M 29.265625 23.65625 L 27.429688 21.015625 C 27.144531 20.609375 26.261719 20.277344 25.453125 20.277344 L 4.898438 20.277344 C 4.089844 20.277344 3.203125 20.609375 2.921875 21.015625 L 1.085938 23.65625 L 29.265625 23.65625 " fill-opacity="1" fill-rule="nonzero"/></g><g clip-path="url(#d27fe09397)"><path fill="#bbbaba" d="M 1.101562 23.65625 C 1.023438 24.328125 1.503906 24.832031 2.292969 24.832031 L 28.058594 24.832031 C 28.84375 24.832031 29.328125 24.328125 29.25 23.65625 L 1.101562 23.65625 " fill-opacity="1" fill-rule="nonzero"/></g><g clip-path="url(#5c9f721f47)"><path fill="#797777" d="M 2.75 24.546875 C 1.089844 24.546875 1.101562 23.65625 1.101562 23.65625 C 1.023438 24.328125 1.503906 24.832031 2.292969 24.832031 L 28.058594 24.832031 C 28.4375 24.832031 28.738281 24.714844 28.945312 24.515625 C 28.945312 24.515625 3 24.546875 2.75 24.546875 " fill-opacity="1" fill-rule="nonzero"/></g><g clip-path="url(#2b38ea99f7)"><path fill="#192c37" d="M 25.410156 4.539062 L 4.941406 4.539062 C 4.132812 4.539062 3.476562 5.199219 3.476562 6.011719 L 3.476562 18.597656 C 3.476562 19.410156 4.132812 20.070312 4.941406 20.070312 L 25.410156 20.070312 C 26.21875 20.070312 26.875 19.410156 26.875 18.597656 L 26.875 6.011719 C 26.875 5.199219 26.21875 4.539062 25.410156 4.539062 " fill-opacity="1" fill-rule="nonzero"/></g><g clip-path="url(#3999e5fe39)"><path fill="#0e191f" d="M 3.828125 18.941406 L 3.828125 6.355469 C 3.828125 5.542969 4.484375 4.882812 5.292969 4.882812 L 25.761719 4.882812 C 26.066406 4.882812 26.347656 4.976562 26.582031 5.136719 C 26.316406 4.773438 25.890625 4.539062 25.410156 4.539062 L 4.941406 4.539062 C 4.132812 4.539062 3.476562 5.199219 3.476562 6.011719 L 3.476562 18.597656 C 3.476562 19.105469 3.730469 19.554688 4.121094 19.820312 C 3.941406 19.574219 3.828125 19.273438 3.828125 18.941406 " fill-opacity="1" fill-rule="nonzero"/></g><path fill="#5cc9d9" d="M 25.902344 18.59375 L 4.445312 18.59375 L 4.445312 6.269531 L 25.902344 6.269531 L 25.902344 18.59375 " fill-opacity="1" fill-rule="nonzero"/><path fill="#4ca5b3" d="M 6.304688 15.824219 C 9.050781 14.6875 11.921875 13.898438 14.832031 13.347656 C 18.410156 12.671875 22.042969 12.464844 25.671875 12.542969 L 25.671875 6.46875 L 4.679688 6.46875 L 4.679688 16.515625 C 5.234375 16.265625 5.789062 16.039062 6.304688 15.824219 " fill-opacity="1" fill-rule="nonzero"/><path fill="#0e191f" d="M 11.890625 20.078125 C 11.890625 20.265625 11.667969 20.414062 11.390625 20.414062 L 7.6875 20.414062 C 7.410156 20.414062 7.1875 20.265625 7.1875 20.078125 C 7.1875 19.894531 7.410156 19.742188 7.6875 19.742188 L 11.390625 19.742188 C 11.667969 19.742188 11.890625 19.894531 11.890625 20.078125 " fill-opacity="1" fill-rule="nonzero"/><path fill="#0e191f" d="M 23.164062 20.078125 C 23.164062 20.265625 22.9375 20.414062 22.664062 20.414062 L 18.960938 20.414062 C 18.683594 20.414062 18.457031 20.265625 18.457031 20.078125 C 18.457031 19.894531 18.683594 19.742188 18.960938 19.742188 L 22.664062 19.742188 C 22.9375 19.742188 23.164062 19.894531 23.164062 20.078125 " fill-opacity="1" fill-rule="nonzero"/><path fill="#172832" d="M 4.933594 21.332031 L 4.1875 21.332031 C 4.078125 21.332031 3.988281 21.285156 3.988281 21.230469 L 3.988281 21.085938 C 3.988281 21.03125 4.078125 20.984375 4.1875 20.984375 L 4.933594 20.984375 C 5.042969 20.984375 5.128906 21.03125 5.128906 21.085938 L 5.128906 21.230469 C 5.128906 21.285156 5.042969 21.332031 4.933594 21.332031 " fill-opacity="1" fill-rule="nonzero"/><path fill="#172832" d="M 6.710938 21.332031 L 5.964844 21.332031 C 5.855469 21.332031 5.769531 21.285156 5.769531 21.230469 L 5.769531 21.085938 C 5.769531 21.03125 5.855469 20.984375 5.964844 20.984375 L 6.710938 20.984375 C 6.820312 20.984375 6.910156 21.03125 6.910156 21.085938 L 6.910156 21.230469 C 6.910156 21.285156 6.820312 21.332031 6.710938 21.332031 " fill-opacity="1" fill-rule="nonzero"/><path fill="#172832" d="M 8.492188 21.332031 L 7.746094 21.332031 C 7.636719 21.332031 7.546875 21.285156 7.546875 21.230469 L 7.546875 21.085938 C 7.546875 21.03125 7.636719 20.984375 7.746094 20.984375 L 8.492188 20.984375 C 8.601562 20.984375 8.6875 21.03125 8.6875 21.085938 L 8.6875 21.230469 C 8.6875 21.285156 8.601562 21.332031 8.492188 21.332031 " fill-opacity="1" fill-rule="nonzero"/><path fill="#172832" d="M 10.269531 21.332031 L 9.523438 21.332031 C 9.414062 21.332031 9.328125 21.285156 9.328125 21.230469 L 9.328125 21.085938 C 9.328125 21.03125 9.414062 20.984375 9.523438 20.984375 L 10.269531 20.984375 C 10.378906 20.984375 10.46875 21.03125 10.46875 21.085938 L 10.46875 21.230469 C 10.46875 21.285156 10.378906 21.332031 10.269531 21.332031 " fill-opacity="1" fill-rule="nonzero"/><path fill="#172832" d="M 12.050781 21.332031 L 11.304688 21.332031 C 11.195312 21.332031 11.105469 21.285156 11.105469 21.230469 L 11.105469 21.085938 C 11.105469 21.03125 11.195312 20.984375 11.304688 20.984375 L 12.050781 20.984375 C 12.160156 20.984375 12.246094 21.03125 12.246094 21.085938 L 12.246094 21.230469 C 12.246094 21.285156 12.160156 21.332031 12.050781 21.332031 " fill-opacity="1" fill-rule="nonzero"/><path fill="#172832" d="M 13.828125 21.332031 L 13.082031 21.332031 C 12.972656 21.332031 12.886719 21.285156 12.886719 21.230469 L 12.886719 21.085938 C 12.886719 21.03125 12.972656 20.984375 13.082031 20.984375 L 13.828125 20.984375 C 13.9375 20.984375 14.027344 21.03125 14.027344 21.085938 L 14.027344 21.230469 C 14.027344 21.285156 13.9375 21.332031 13.828125 21.332031 " fill-opacity="1" fill-rule="nonzero"/><path fill="#172832" d="M 15.609375 21.332031 L 14.863281 21.332031 C 14.753906 21.332031 14.664062 21.285156 14.664062 21.230469 L 14.664062 21.085938 C 14.664062 21.03125 14.753906 20.984375 14.863281 20.984375 L 15.609375 20.984375 C 15.71875 20.984375 15.804688 21.03125 15.804688 21.085938 L 15.804688 21.230469 C 15.804688 21.285156 15.71875 21.332031 15.609375 21.332031 " fill-opacity="1" fill-rule="nonzero"/><path fill="#172832" d="M 17.386719 21.332031 L 16.640625 21.332031 C 16.53125 21.332031 16.445312 21.285156 16.445312 21.230469 L 16.445312 21.085938 C 16.445312 21.03125 16.53125 20.984375 16.640625 20.984375 L 17.386719 20.984375 C 17.496094 20.984375 17.585938 21.03125 17.585938 21.085938 L 17.585938 21.230469 C 17.585938 21.285156 17.496094 21.332031 17.386719 21.332031 " fill-opacity="1" fill-rule="nonzero"/><path fill="#172832" d="M 19.167969 21.332031 L 18.421875 21.332031 C 18.3125 21.332031 18.222656 21.285156 18.222656 21.230469 L 18.222656 21.085938 C 18.222656 21.03125 18.3125 20.984375 18.421875 20.984375 L 19.167969 20.984375 C 19.277344 20.984375 19.363281 21.03125 19.363281 21.085938 L 19.363281 21.230469 C 19.363281 21.285156 19.277344 21.332031 19.167969 21.332031 " fill-opacity="1" fill-rule="nonzero"/><path fill="#172832" d="M 20.945312 21.332031 L 20.203125 21.332031 C 20.09375 21.332031 20.003906 21.285156 20.003906 21.230469 L 20.003906 21.085938 C 20.003906 21.03125 20.09375 20.984375 20.203125 20.984375 L 20.945312 20.984375 C 21.054688 20.984375 21.144531 21.03125 21.144531 21.085938 L 21.144531 21.230469 C 21.144531 21.285156 21.054688 21.332031 20.945312 21.332031 " fill-opacity="1" fill-rule="nonzero"/><path fill="#172832" d="M 22.726562 21.332031 L 21.980469 21.332031 C 21.871094 21.332031 21.78125 21.285156 21.78125 21.230469 L 21.78125 21.085938 C 21.78125 21.03125 21.871094 20.984375 21.980469 20.984375 L 22.726562 20.984375 C 22.835938 20.984375 22.925781 21.03125 22.925781 21.085938 L 22.925781 21.230469 C 22.925781 21.285156 22.835938 21.332031 22.726562 21.332031 " fill-opacity="1" fill-rule="nonzero"/><path fill="#172832" d="M 24.503906 21.332031 L 23.761719 21.332031 C 23.652344 21.332031 23.5625 21.285156 23.5625 21.230469 L 23.5625 21.085938 C 23.5625 21.03125 23.652344 20.984375 23.761719 20.984375 L 24.503906 20.984375 C 24.613281 20.984375 24.703125 21.03125 24.703125 21.085938 L 24.703125 21.230469 C 24.703125 21.285156 24.613281 21.332031 24.503906 21.332031 " fill-opacity="1" fill-rule="nonzero"/><path fill="#172832" d="M 26.285156 21.332031 L 25.539062 21.332031 C 25.429688 21.332031 25.339844 21.285156 25.339844 21.230469 L 25.339844 21.085938 C 25.339844 21.03125 25.429688 20.984375 25.539062 20.984375 L 26.285156 20.984375 C 26.394531 20.984375 26.484375 21.03125 26.484375 21.085938 L 26.484375 21.230469 C 26.484375 21.285156 26.394531 21.332031 26.285156 21.332031 " fill-opacity="1" fill-rule="nonzero"/><path fill="#172832" d="M 4.296875 21.992188 L 3.507812 21.992188 C 3.390625 21.992188 3.296875 21.945312 3.296875 21.882812 L 3.296875 21.730469 C 3.296875 21.671875 3.390625 21.621094 3.507812 21.621094 L 4.296875 21.621094 C 4.414062 21.621094 4.507812 21.671875 4.507812 21.730469 L 4.507812 21.882812 C 4.507812 21.945312 4.414062 21.992188 4.296875 21.992188 " fill-opacity="1" fill-rule="nonzero"/><path fill="#172832" d="M 6.1875 21.992188 L 5.394531 21.992188 C 5.28125 21.992188 5.183594 21.945312 5.183594 21.882812 L 5.183594 21.730469 C 5.183594 21.671875 5.28125 21.621094 5.394531 21.621094 L 6.1875 21.621094 C 6.304688 21.621094 6.398438 21.671875 6.398438 21.730469 L 6.398438 21.882812 C 6.398438 21.945312 6.304688 21.992188 6.1875 21.992188 " fill-opacity="1" fill-rule="nonzero"/><path fill="#172832" d="M 8.074219 21.992188 L 7.285156 21.992188 C 7.167969 21.992188 7.074219 21.945312 7.074219 21.882812 L 7.074219 21.730469 C 7.074219 21.671875 7.167969 21.621094 7.285156 21.621094 L 8.074219 21.621094 C 8.191406 21.621094 8.285156 21.671875 8.285156 21.730469 L 8.285156 21.882812 C 8.285156 21.945312 8.191406 21.992188 8.074219 21.992188 " fill-opacity="1" fill-rule="nonzero"/><path fill="#172832" d="M 9.964844 21.992188 L 9.171875 21.992188 C 9.058594 21.992188 8.964844 21.945312 8.964844 21.882812 L 8.964844 21.730469 C 8.964844 21.671875 9.058594 21.621094 9.171875 21.621094 L 9.964844 21.621094 C 10.082031 21.621094 10.175781 21.671875 10.175781 21.730469 L 10.175781 21.882812 C 10.175781 21.945312 10.082031 21.992188 9.964844 21.992188 " fill-opacity="1" fill-rule="nonzero"/><path fill="#172832" d="M 11.851562 21.992188 L 11.0625 21.992188 C 10.945312 21.992188 10.851562 21.945312 10.851562 21.882812 L 10.851562 21.730469 C 10.851562 21.671875 10.945312 21.621094 11.0625 21.621094 L 11.851562 21.621094 C 11.96875 21.621094 12.0625 21.671875 12.0625 21.730469 L 12.0625 21.882812 C 12.0625 21.945312 11.96875 21.992188 11.851562 21.992188 " fill-opacity="1" fill-rule="nonzero"/><path fill="#172832" d="M 13.742188 21.992188 L 12.953125 21.992188 C 12.835938 21.992188 12.742188 21.945312 12.742188 21.882812 L 12.742188 21.730469 C 12.742188 21.671875 12.835938 21.621094 12.953125 21.621094 L 13.742188 21.621094 C 13.859375 21.621094 13.953125 21.671875 13.953125 21.730469 L 13.953125 21.882812 C 13.953125 21.945312 13.859375 21.992188 13.742188 21.992188 " fill-opacity="1" fill-rule="nonzero"/><path fill="#172832" d="M 15.632812 21.992188 L 14.839844 21.992188 C 14.722656 21.992188 14.628906 21.945312 14.628906 21.882812 L 14.628906 21.730469 C 14.628906 21.671875 14.722656 21.621094 14.839844 21.621094 L 15.632812 21.621094 C 15.746094 21.621094 15.839844 21.671875 15.839844 21.730469 L 15.839844 21.882812 C 15.839844 21.945312 15.746094 21.992188 15.632812 21.992188 " fill-opacity="1" fill-rule="nonzero"/><path fill="#172832" d="M 17.519531 21.992188 L 16.730469 21.992188 C 16.613281 21.992188 16.519531 21.945312 16.519531 21.882812 L 16.519531 21.730469 C 16.519531 21.671875 16.613281 21.621094 16.730469 21.621094 L 17.519531 21.621094 C 17.636719 21.621094 17.730469 21.671875 17.730469 21.730469 L 17.730469 21.882812 C 17.730469 21.945312 17.636719 21.992188 17.519531 21.992188 " fill-opacity="1" fill-rule="nonzero"/><path fill="#172832" d="M 19.410156 21.992188 L 18.617188 21.992188 C 18.503906 21.992188 18.40625 21.945312 18.40625 21.882812 L 18.40625 21.730469 C 18.40625 21.671875 18.503906 21.621094 18.617188 21.621094 L 19.410156 21.621094 C 19.523438 21.621094 19.621094 21.671875 19.621094 21.730469 L 19.621094 21.882812 C 19.621094 21.945312 19.523438 21.992188 19.410156 21.992188 " fill-opacity="1" fill-rule="nonzero"/><path fill="#172832" d="M 21.296875 21.992188 L 20.507812 21.992188 C 20.390625 21.992188 20.296875 21.945312 20.296875 21.882812 L 20.296875 21.730469 C 20.296875 21.671875 20.390625 21.621094 20.507812 21.621094 L 21.296875 21.621094 C 21.414062 21.621094 21.507812 21.671875 21.507812 21.730469 L 21.507812 21.882812 C 21.507812 21.945312 21.414062 21.992188 21.296875 21.992188 " fill-opacity="1" fill-rule="nonzero"/><path fill="#172832" d="M 23.1875 21.992188 L 22.394531 21.992188 C 22.28125 21.992188 22.183594 21.945312 22.183594 21.882812 L 22.183594 21.730469 C 22.183594 21.671875 22.28125 21.621094 22.394531 21.621094 L 23.1875 21.621094 C 23.304688 21.621094 23.398438 21.671875 23.398438 21.730469 L 23.398438 21.882812 C 23.398438 21.945312 23.304688 21.992188 23.1875 21.992188 " fill-opacity="1" fill-rule="nonzero"/><path fill="#172832" d="M 25.074219 21.992188 L 24.285156 21.992188 C 24.167969 21.992188 24.074219 21.945312 24.074219 21.882812 L 24.074219 21.730469 C 24.074219 21.671875 24.167969 21.621094 24.285156 21.621094 L 25.074219 21.621094 C 25.191406 21.621094 25.285156 21.671875 25.285156 21.730469 L 25.285156 21.882812 C 25.285156 21.945312 25.191406 21.992188 25.074219 21.992188 " fill-opacity="1" fill-rule="nonzero"/><path fill="#172832" d="M 26.964844 21.992188 L 26.175781 21.992188 C 26.058594 21.992188 25.964844 21.945312 25.964844 21.882812 L 25.964844 21.730469 C 25.964844 21.671875 26.058594 21.621094 26.175781 21.621094 L 26.964844 21.621094 C 27.082031 21.621094 27.175781 21.671875 27.175781 21.730469 L 27.175781 21.882812 C 27.175781 21.945312 27.082031 21.992188 26.964844 21.992188 " fill-opacity="1" fill-rule="nonzero"/><path fill="#172832" d="M 3.589844 22.695312 L 2.746094 22.695312 C 2.625 22.695312 2.523438 22.648438 2.523438 22.585938 L 2.523438 22.433594 C 2.523438 22.375 2.625 22.324219 2.746094 22.324219 L 3.589844 22.324219 C 3.714844 22.324219 3.8125 22.375 3.8125 22.433594 L 3.8125 22.585938 C 3.8125 22.648438 3.714844 22.695312 3.589844 22.695312 " fill-opacity="1" fill-rule="nonzero"/><path fill="#172832" d="M 5.601562 22.695312 L 4.757812 22.695312 C 4.636719 22.695312 4.535156 22.648438 4.535156 22.585938 L 4.535156 22.433594 C 4.535156 22.375 4.636719 22.324219 4.757812 22.324219 L 5.601562 22.324219 C 5.722656 22.324219 5.824219 22.375 5.824219 22.433594 L 5.824219 22.585938 C 5.824219 22.648438 5.722656 22.695312 5.601562 22.695312 " fill-opacity="1" fill-rule="nonzero"/><path fill="#172832" d="M 7.613281 22.695312 L 6.769531 22.695312 C 6.644531 22.695312 6.546875 22.648438 6.546875 22.585938 L 6.546875 22.433594 C 6.546875 22.375 6.644531 22.324219 6.769531 22.324219 L 7.613281 22.324219 C 7.734375 22.324219 7.835938 22.375 7.835938 22.433594 L 7.835938 22.585938 C 7.835938 22.648438 7.734375 22.695312 7.613281 22.695312 " fill-opacity="1" fill-rule="nonzero"/><path fill="#172832" d="M 9.625 22.695312 L 8.78125 22.695312 C 8.65625 22.695312 8.558594 22.648438 8.558594 22.585938 L 8.558594 22.433594 C 8.558594 22.375 8.65625 22.324219 8.78125 22.324219 L 9.625 22.324219 C 9.746094 22.324219 9.847656 22.375 9.847656 22.433594 L 9.847656 22.585938 C 9.847656 22.648438 9.746094 22.695312 9.625 22.695312 " fill-opacity="1" fill-rule="nonzero"/><path fill="#172832" d="M 11.632812 22.695312 L 10.792969 22.695312 C 10.667969 22.695312 10.566406 22.648438 10.566406 22.585938 L 10.566406 22.433594 C 10.566406 22.375 10.667969 22.324219 10.792969 22.324219 L 11.632812 22.324219 C 11.757812 22.324219 11.859375 22.375 11.859375 22.433594 L 11.859375 22.585938 C 11.859375 22.648438 11.757812 22.695312 11.632812 22.695312 " fill-opacity="1" fill-rule="nonzero"/><path fill="#172832" d="M 13.644531 22.695312 L 12.804688 22.695312 C 12.679688 22.695312 12.578125 22.648438 12.578125 22.585938 L 12.578125 22.433594 C 12.578125 22.375 12.679688 22.324219 12.804688 22.324219 L 13.644531 22.324219 C 13.769531 22.324219 13.871094 22.375 13.871094 22.433594 L 13.871094 22.585938 C 13.871094 22.648438 13.769531 22.695312 13.644531 22.695312 " fill-opacity="1" fill-rule="nonzero"/><path fill="#172832" d="M 15.65625 22.695312 L 14.816406 22.695312 C 14.691406 22.695312 14.589844 22.648438 14.589844 22.585938 L 14.589844 22.433594 C 14.589844 22.375 14.691406 22.324219 14.816406 22.324219 L 15.65625 22.324219 C 15.78125 22.324219 15.878906 22.375 15.878906 22.433594 L 15.878906 22.585938 C 15.878906 22.648438 15.78125 22.695312 15.65625 22.695312 " fill-opacity="1" fill-rule="nonzero"/><path fill="#172832" d="M 17.667969 22.695312 L 16.824219 22.695312 C 16.703125 22.695312 16.601562 22.648438 16.601562 22.585938 L 16.601562 22.433594 C 16.601562 22.375 16.703125 22.324219 16.824219 22.324219 L 17.667969 22.324219 C 17.792969 22.324219 17.890625 22.375 17.890625 22.433594 L 17.890625 22.585938 C 17.890625 22.648438 17.792969 22.695312 17.667969 22.695312 " fill-opacity="1" fill-rule="nonzero"/><path fill="#172832" d="M 19.679688 22.695312 L 18.835938 22.695312 C 18.714844 22.695312 18.613281 22.648438 18.613281 22.585938 L 18.613281 22.433594 C 18.613281 22.375 18.714844 22.324219 18.835938 22.324219 L 19.679688 22.324219 C 19.800781 22.324219 19.902344 22.375 19.902344 22.433594 L 19.902344 22.585938 C 19.902344 22.648438 19.800781 22.695312 19.679688 22.695312 " fill-opacity="1" fill-rule="nonzero"/><path fill="#172832" d="M 21.691406 22.695312 L 20.847656 22.695312 C 20.726562 22.695312 20.625 22.648438 20.625 22.585938 L 20.625 22.433594 C 20.625 22.375 20.726562 22.324219 20.847656 22.324219 L 21.691406 22.324219 C 21.8125 22.324219 21.914062 22.375 21.914062 22.433594 L 21.914062 22.585938 C 21.914062 22.648438 21.8125 22.695312 21.691406 22.695312 " fill-opacity="1" fill-rule="nonzero"/><path fill="#172832" d="M 23.703125 22.695312 L 22.859375 22.695312 C 22.734375 22.695312 22.636719 22.648438 22.636719 22.585938 L 22.636719 22.433594 C 22.636719 22.375 22.734375 22.324219 22.859375 22.324219 L 23.703125 22.324219 C 23.824219 22.324219 23.925781 22.375 23.925781 22.433594 L 23.925781 22.585938 C 23.925781 22.648438 23.824219 22.695312 23.703125 22.695312 " fill-opacity="1" fill-rule="nonzero"/><path fill="#172832" d="M 25.710938 22.695312 L 24.871094 22.695312 C 24.746094 22.695312 24.648438 22.648438 24.648438 22.585938 L 24.648438 22.433594 C 24.648438 22.375 24.746094 22.324219 24.871094 22.324219 L 25.710938 22.324219 C 25.835938 22.324219 25.9375 22.375 25.9375 22.433594 L 25.9375 22.585938 C 25.9375 22.648438 25.835938 22.695312 25.710938 22.695312 " fill-opacity="1" fill-rule="nonzero"/><path fill="#172832" d="M 27.722656 22.695312 L 26.882812 22.695312 C 26.757812 22.695312 26.65625 22.648438 26.65625 22.585938 L 26.65625 22.433594 C 26.65625 22.375 26.757812 22.324219 26.882812 22.324219 L 27.722656 22.324219 C 27.847656 22.324219 27.949219 22.375 27.949219 22.433594 L 27.949219 22.585938 C 27.949219 22.648438 27.847656 22.695312 27.722656 22.695312 " fill-opacity="1" fill-rule="nonzero"/><path fill="#172832" d="M 17.71875 23.359375 L 12.753906 23.359375 C 12.628906 23.359375 12.53125 23.304688 12.53125 23.238281 L 12.53125 23.066406 C 12.53125 23 12.628906 22.941406 12.753906 22.941406 L 17.71875 22.941406 C 17.839844 22.941406 17.941406 23 17.941406 23.066406 L 17.941406 23.238281 C 17.941406 23.304688 17.839844 23.359375 17.71875 23.359375 " fill-opacity="1" fill-rule="nonzero"/><path fill="#d3d2d2" d="M 15.527344 5.578125 C 15.527344 5.773438 15.371094 5.933594 15.175781 5.933594 C 14.980469 5.933594 14.824219 5.773438 14.824219 5.578125 C 14.824219 5.382812 14.980469 5.222656 15.175781 5.222656 C 15.371094 5.222656 15.527344 5.382812 15.527344 5.578125 " fill-opacity="1" fill-rule="nonzero"/><path fill="#bdbcbc" d="M 15.359375 5.578125 C 15.359375 5.679688 15.277344 5.761719 15.175781 5.761719 C 15.074219 5.761719 14.992188 5.679688 14.992188 5.578125 C 14.992188 5.476562 15.074219 5.390625 15.175781 5.390625 C 15.277344 5.390625 15.359375 5.476562 15.359375 5.578125 " fill-opacity="1" fill-rule="nonzero"/><path fill="#2a4c5f" d="M 5.070312 21.167969 C 5.070312 21.226562 4.980469 21.273438 4.871094 21.273438 L 4.128906 21.273438 C 4.015625 21.273438 3.929688 21.226562 3.929688 21.167969 L 3.929688 21.027344 C 3.929688 20.96875 4.015625 20.921875 4.128906 20.921875 L 4.871094 20.921875 C 4.980469 20.921875 5.070312 20.96875 5.070312 21.027344 L 5.070312 21.167969 " fill-opacity="1" fill-rule="nonzero"/><path fill="#2a4c5f" d="M 6.847656 21.167969 C 6.847656 21.226562 6.761719 21.273438 6.652344 21.273438 L 5.90625 21.273438 C 5.796875 21.273438 5.707031 21.226562 5.707031 21.167969 L 5.707031 21.027344 C 5.707031 20.96875 5.796875 20.921875 5.90625 20.921875 L 6.652344 20.921875 C 6.761719 20.921875 6.847656 20.96875 6.847656 21.027344 L 6.847656 21.167969 " fill-opacity="1" fill-rule="nonzero"/><path fill="#2a4c5f" d="M 8.628906 21.167969 C 8.628906 21.226562 8.539062 21.273438 8.429688 21.273438 L 7.6875 21.273438 C 7.578125 21.273438 7.488281 21.226562 7.488281 21.167969 L 7.488281 21.027344 C 7.488281 20.96875 7.578125 20.921875 7.6875 20.921875 L 8.429688 20.921875 C 8.539062 20.921875 8.628906 20.96875 8.628906 21.027344 L 8.628906 21.167969 " fill-opacity="1" fill-rule="nonzero"/><path fill="#2a4c5f" d="M 10.410156 21.167969 C 10.410156 21.226562 10.320312 21.273438 10.210938 21.273438 L 9.464844 21.273438 C 9.355469 21.273438 9.265625 21.226562 9.265625 21.167969 L 9.265625 21.027344 C 9.265625 20.96875 9.355469 20.921875 9.464844 20.921875 L 10.210938 20.921875 C 10.320312 20.921875 10.410156 20.96875 10.410156 21.027344 L 10.410156 21.167969 " fill-opacity="1" fill-rule="nonzero"/><path fill="#2a4c5f" d="M 12.1875 21.167969 C 12.1875 21.226562 12.097656 21.273438 11.988281 21.273438 L 11.246094 21.273438 C 11.136719 21.273438 11.046875 21.226562 11.046875 21.167969 L 11.046875 21.027344 C 11.046875 20.96875 11.136719 20.921875 11.246094 20.921875 L 11.988281 20.921875 C 12.097656 20.921875 12.1875 20.96875 12.1875 21.027344 L 12.1875 21.167969 " fill-opacity="1" fill-rule="nonzero"/><path fill="#2a4c5f" d="M 13.96875 21.167969 C 13.96875 21.226562 13.878906 21.273438 13.769531 21.273438 L 13.023438 21.273438 C 12.914062 21.273438 12.824219 21.226562 12.824219 21.167969 L 12.824219 21.027344 C 12.824219 20.96875 12.914062 20.921875 13.023438 20.921875 L 13.769531 20.921875 C 13.878906 20.921875 13.96875 20.96875 13.96875 21.027344 L 13.96875 21.167969 " fill-opacity="1" fill-rule="nonzero"/><path fill="#2a4c5f" d="M 15.746094 21.167969 C 15.746094 21.226562 15.65625 21.273438 15.546875 21.273438 L 14.804688 21.273438 C 14.695312 21.273438 14.605469 21.226562 14.605469 21.167969 L 14.605469 21.027344 C 14.605469 20.96875 14.695312 20.921875 14.804688 20.921875 L 15.546875 20.921875 C 15.65625 20.921875 15.746094 20.96875 15.746094 21.027344 L 15.746094 21.167969 " fill-opacity="1" fill-rule="nonzero"/><path fill="#2a4c5f" d="M 17.527344 21.167969 C 17.527344 21.226562 17.4375 21.273438 17.328125 21.273438 L 16.582031 21.273438 C 16.472656 21.273438 16.382812 21.226562 16.382812 21.167969 L 16.382812 21.027344 C 16.382812 20.96875 16.472656 20.921875 16.582031 20.921875 L 17.328125 20.921875 C 17.4375 20.921875 17.527344 20.96875 17.527344 21.027344 L 17.527344 21.167969 " fill-opacity="1" fill-rule="nonzero"/><path fill="#2a4c5f" d="M 19.304688 21.167969 C 19.304688 21.226562 19.214844 21.273438 19.105469 21.273438 L 18.363281 21.273438 C 18.253906 21.273438 18.164062 21.226562 18.164062 21.167969 L 18.164062 21.027344 C 18.164062 20.96875 18.253906 20.921875 18.363281 20.921875 L 19.105469 20.921875 C 19.214844 20.921875 19.304688 20.96875 19.304688 21.027344 L 19.304688 21.167969 " fill-opacity="1" fill-rule="nonzero"/><path fill="#2a4c5f" d="M 21.085938 21.167969 C 21.085938 21.226562 20.996094 21.273438 20.886719 21.273438 L 20.140625 21.273438 C 20.03125 21.273438 19.941406 21.226562 19.941406 21.167969 L 19.941406 21.027344 C 19.941406 20.96875 20.03125 20.921875 20.140625 20.921875 L 20.886719 20.921875 C 20.996094 20.921875 21.085938 20.96875 21.085938 21.027344 L 21.085938 21.167969 " fill-opacity="1" fill-rule="nonzero"/><path fill="#2a4c5f" d="M 22.863281 21.167969 C 22.863281 21.226562 22.773438 21.273438 22.664062 21.273438 L 21.921875 21.273438 C 21.8125 21.273438 21.722656 21.226562 21.722656 21.167969 L 21.722656 21.027344 C 21.722656 20.96875 21.8125 20.921875 21.921875 20.921875 L 22.664062 20.921875 C 22.773438 20.921875 22.863281 20.96875 22.863281 21.027344 L 22.863281 21.167969 " fill-opacity="1" fill-rule="nonzero"/><path fill="#2a4c5f" d="M 24.644531 21.167969 C 24.644531 21.226562 24.554688 21.273438 24.445312 21.273438 L 23.699219 21.273438 C 23.589844 21.273438 23.5 21.226562 23.5 21.167969 L 23.5 21.027344 C 23.5 20.96875 23.589844 20.921875 23.699219 20.921875 L 24.445312 20.921875 C 24.554688 20.921875 24.644531 20.96875 24.644531 21.027344 L 24.644531 21.167969 " fill-opacity="1" fill-rule="nonzero"/><path fill="#2a4c5f" d="M 26.421875 21.167969 C 26.421875 21.226562 26.332031 21.273438 26.222656 21.273438 L 25.480469 21.273438 C 25.371094 21.273438 25.28125 21.226562 25.28125 21.167969 L 25.28125 21.027344 C 25.28125 20.96875 25.371094 20.921875 25.480469 20.921875 L 26.222656 20.921875 C 26.332031 20.921875 26.421875 20.96875 26.421875 21.027344 L 26.421875 21.167969 " fill-opacity="1" fill-rule="nonzero"/><path fill="#2a4c5f" d="M 4.449219 21.824219 C 4.449219 21.882812 4.351562 21.933594 4.238281 21.933594 L 3.445312 21.933594 C 3.332031 21.933594 3.234375 21.882812 3.234375 21.824219 L 3.234375 21.671875 C 3.234375 21.609375 3.332031 21.5625 3.445312 21.5625 L 4.238281 21.5625 C 4.351562 21.5625 4.449219 21.609375 4.449219 21.671875 L 4.449219 21.824219 " fill-opacity="1" fill-rule="nonzero"/><path fill="#2a4c5f" d="M 6.335938 21.824219 C 6.335938 21.882812 6.242188 21.933594 6.125 21.933594 L 5.335938 21.933594 C 5.21875 21.933594 5.125 21.882812 5.125 21.824219 L 5.125 21.671875 C 5.125 21.609375 5.21875 21.5625 5.335938 21.5625 L 6.125 21.5625 C 6.242188 21.5625 6.335938 21.609375 6.335938 21.671875 L 6.335938 21.824219 " fill-opacity="1" fill-rule="nonzero"/><path fill="#2a4c5f" d="M 8.226562 21.824219 C 8.226562 21.882812 8.132812 21.933594 8.015625 21.933594 L 7.222656 21.933594 C 7.109375 21.933594 7.015625 21.882812 7.015625 21.824219 L 7.015625 21.671875 C 7.015625 21.609375 7.109375 21.5625 7.222656 21.5625 L 8.015625 21.5625 C 8.132812 21.5625 8.226562 21.609375 8.226562 21.671875 L 8.226562 21.824219 " fill-opacity="1" fill-rule="nonzero"/><path fill="#2a4c5f" d="M 10.113281 21.824219 C 10.113281 21.882812 10.019531 21.933594 9.902344 21.933594 L 9.113281 21.933594 C 8.996094 21.933594 8.902344 21.882812 8.902344 21.824219 L 8.902344 21.671875 C 8.902344 21.609375 8.996094 21.5625 9.113281 21.5625 L 9.902344 21.5625 C 10.019531 21.5625 10.113281 21.609375 10.113281 21.671875 L 10.113281 21.824219 " fill-opacity="1" fill-rule="nonzero"/><path fill="#2a4c5f" d="M 12.003906 21.824219 C 12.003906 21.882812 11.910156 21.933594 11.792969 21.933594 L 11.003906 21.933594 C 10.886719 21.933594 10.792969 21.882812 10.792969 21.824219 L 10.792969 21.671875 C 10.792969 21.609375 10.886719 21.5625 11.003906 21.5625 L 11.792969 21.5625 C 11.910156 21.5625 12.003906 21.609375 12.003906 21.671875 L 12.003906 21.824219 " fill-opacity="1" fill-rule="nonzero"/><path fill="#2a4c5f" d="M 13.890625 21.824219 C 13.890625 21.882812 13.796875 21.933594 13.683594 21.933594 L 12.890625 21.933594 C 12.773438 21.933594 12.679688 21.882812 12.679688 21.824219 L 12.679688 21.671875 C 12.679688 21.609375 12.773438 21.5625 12.890625 21.5625 L 13.683594 21.5625 C 13.796875 21.5625 13.890625 21.609375 13.890625 21.671875 L 13.890625 21.824219 " fill-opacity="1" fill-rule="nonzero"/><path fill="#2a4c5f" d="M 15.78125 21.824219 C 15.78125 21.882812 15.6875 21.933594 15.570312 21.933594 L 14.78125 21.933594 C 14.664062 21.933594 14.570312 21.882812 14.570312 21.824219 L 14.570312 21.671875 C 14.570312 21.609375 14.664062 21.5625 14.78125 21.5625 L 15.570312 21.5625 C 15.6875 21.5625 15.78125 21.609375 15.78125 21.671875 L 15.78125 21.824219 " fill-opacity="1" fill-rule="nonzero"/><path fill="#2a4c5f" d="M 17.671875 21.824219 C 17.671875 21.882812 17.578125 21.933594 17.460938 21.933594 L 16.667969 21.933594 C 16.554688 21.933594 16.457031 21.882812 16.457031 21.824219 L 16.457031 21.671875 C 16.457031 21.609375 16.554688 21.5625 16.667969 21.5625 L 17.460938 21.5625 C 17.578125 21.5625 17.671875 21.609375 17.671875 21.671875 L 17.671875 21.824219 " fill-opacity="1" fill-rule="nonzero"/><path fill="#2a4c5f" d="M 19.558594 21.824219 C 19.558594 21.882812 19.464844 21.933594 19.347656 21.933594 L 18.558594 21.933594 C 18.441406 21.933594 18.347656 21.882812 18.347656 21.824219 L 18.347656 21.671875 C 18.347656 21.609375 18.441406 21.5625 18.558594 21.5625 L 19.347656 21.5625 C 19.464844 21.5625 19.558594 21.609375 19.558594 21.671875 L 19.558594 21.824219 " fill-opacity="1" fill-rule="nonzero"/><path fill="#2a4c5f" d="M 21.449219 21.824219 C 21.449219 21.882812 21.355469 21.933594 21.238281 21.933594 L 20.445312 21.933594 C 20.332031 21.933594 20.238281 21.882812 20.238281 21.824219 L 20.238281 21.671875 C 20.238281 21.609375 20.332031 21.5625 20.445312 21.5625 L 21.238281 21.5625 C 21.355469 21.5625 21.449219 21.609375 21.449219 21.671875 L 21.449219 21.824219 " fill-opacity="1" fill-rule="nonzero"/><path fill="#2a4c5f" d="M 23.335938 21.824219 C 23.335938 21.882812 23.242188 21.933594 23.125 21.933594 L 22.335938 21.933594 C 22.21875 21.933594 22.125 21.882812 22.125 21.824219 L 22.125 21.671875 C 22.125 21.609375 22.21875 21.5625 22.335938 21.5625 L 23.125 21.5625 C 23.242188 21.5625 23.335938 21.609375 23.335938 21.671875 L 23.335938 21.824219 " fill-opacity="1" fill-rule="nonzero"/><path fill="#2a4c5f" d="M 25.226562 21.824219 C 25.226562 21.882812 25.132812 21.933594 25.015625 21.933594 L 24.226562 21.933594 C 24.109375 21.933594 24.015625 21.882812 24.015625 21.824219 L 24.015625 21.671875 C 24.015625 21.609375 24.109375 21.5625 24.226562 21.5625 L 25.015625 21.5625 C 25.132812 21.5625 25.226562 21.609375 25.226562 21.671875 L 25.226562 21.824219 " fill-opacity="1" fill-rule="nonzero"/><path fill="#2a4c5f" d="M 27.113281 21.824219 C 27.113281 21.882812 27.019531 21.933594 26.90625 21.933594 L 26.113281 21.933594 C 25.996094 21.933594 25.902344 21.882812 25.902344 21.824219 L 25.902344 21.671875 C 25.902344 21.609375 25.996094 21.5625 26.113281 21.5625 L 26.90625 21.5625 C 27.019531 21.5625 27.113281 21.609375 27.113281 21.671875 L 27.113281 21.824219 " fill-opacity="1" fill-rule="nonzero"/><path fill="#2a4c5f" d="M 3.753906 22.527344 C 3.753906 22.585938 3.652344 22.636719 3.527344 22.636719 L 2.6875 22.636719 C 2.5625 22.636719 2.464844 22.585938 2.464844 22.527344 L 2.464844 22.375 C 2.464844 22.3125 2.5625 22.265625 2.6875 22.265625 L 3.527344 22.265625 C 3.652344 22.265625 3.753906 22.3125 3.753906 22.375 L 3.753906 22.527344 " fill-opacity="1" fill-rule="nonzero"/><path fill="#2a4c5f" d="M 5.765625 22.527344 C 5.765625 22.585938 5.664062 22.636719 5.539062 22.636719 L 4.699219 22.636719 C 4.574219 22.636719 4.472656 22.585938 4.472656 22.527344 L 4.472656 22.375 C 4.472656 22.3125 4.574219 22.265625 4.699219 22.265625 L 5.539062 22.265625 C 5.664062 22.265625 5.765625 22.3125 5.765625 22.375 L 5.765625 22.527344 " fill-opacity="1" fill-rule="nonzero"/><path fill="#2a4c5f" d="M 7.777344 22.527344 C 7.777344 22.585938 7.675781 22.636719 7.550781 22.636719 L 6.710938 22.636719 C 6.585938 22.636719 6.484375 22.585938 6.484375 22.527344 L 6.484375 22.375 C 6.484375 22.3125 6.585938 22.265625 6.710938 22.265625 L 7.550781 22.265625 C 7.675781 22.265625 7.777344 22.3125 7.777344 22.375 L 7.777344 22.527344 " fill-opacity="1" fill-rule="nonzero"/><path fill="#2a4c5f" d="M 9.789062 22.527344 C 9.789062 22.585938 9.6875 22.636719 9.5625 22.636719 L 8.722656 22.636719 C 8.597656 22.636719 8.496094 22.585938 8.496094 22.527344 L 8.496094 22.375 C 8.496094 22.3125 8.597656 22.265625 8.722656 22.265625 L 9.5625 22.265625 C 9.6875 22.265625 9.789062 22.3125 9.789062 22.375 L 9.789062 22.527344 " fill-opacity="1" fill-rule="nonzero"/><path fill="#2a4c5f" d="M 11.796875 22.527344 C 11.796875 22.585938 11.699219 22.636719 11.574219 22.636719 L 10.730469 22.636719 C 10.609375 22.636719 10.507812 22.585938 10.507812 22.527344 L 10.507812 22.375 C 10.507812 22.3125 10.609375 22.265625 10.730469 22.265625 L 11.574219 22.265625 C 11.699219 22.265625 11.796875 22.3125 11.796875 22.375 L 11.796875 22.527344 " fill-opacity="1" fill-rule="nonzero"/><path fill="#2a4c5f" d="M 13.808594 22.527344 C 13.808594 22.585938 13.710938 22.636719 13.585938 22.636719 L 12.742188 22.636719 C 12.621094 22.636719 12.519531 22.585938 12.519531 22.527344 L 12.519531 22.375 C 12.519531 22.3125 12.621094 22.265625 12.742188 22.265625 L 13.585938 22.265625 C 13.710938 22.265625 13.808594 22.3125 13.808594 22.375 L 13.808594 22.527344 " fill-opacity="1" fill-rule="nonzero"/><path fill="#2a4c5f" d="M 15.820312 22.527344 C 15.820312 22.585938 15.71875 22.636719 15.597656 22.636719 L 14.753906 22.636719 C 14.632812 22.636719 14.53125 22.585938 14.53125 22.527344 L 14.53125 22.375 C 14.53125 22.3125 14.632812 22.265625 14.753906 22.265625 L 15.597656 22.265625 C 15.71875 22.265625 15.820312 22.3125 15.820312 22.375 L 15.820312 22.527344 " fill-opacity="1" fill-rule="nonzero"/><path fill="#2a4c5f" d="M 17.832031 22.527344 C 17.832031 22.585938 17.730469 22.636719 17.609375 22.636719 L 16.765625 22.636719 C 16.640625 22.636719 16.542969 22.585938 16.542969 22.527344 L 16.542969 22.375 C 16.542969 22.3125 16.640625 22.265625 16.765625 22.265625 L 17.609375 22.265625 C 17.730469 22.265625 17.832031 22.3125 17.832031 22.375 L 17.832031 22.527344 " fill-opacity="1" fill-rule="nonzero"/><path fill="#2a4c5f" d="M 19.84375 22.527344 C 19.84375 22.585938 19.742188 22.636719 19.617188 22.636719 L 18.777344 22.636719 C 18.652344 22.636719 18.554688 22.585938 18.554688 22.527344 L 18.554688 22.375 C 18.554688 22.3125 18.652344 22.265625 18.777344 22.265625 L 19.617188 22.265625 C 19.742188 22.265625 19.84375 22.3125 19.84375 22.375 L 19.84375 22.527344 " fill-opacity="1" fill-rule="nonzero"/><path fill="#2a4c5f" d="M 21.855469 22.527344 C 21.855469 22.585938 21.753906 22.636719 21.628906 22.636719 L 20.789062 22.636719 C 20.664062 22.636719 20.5625 22.585938 20.5625 22.527344 L 20.5625 22.375 C 20.5625 22.3125 20.664062 22.265625 20.789062 22.265625 L 21.628906 22.265625 C 21.753906 22.265625 21.855469 22.3125 21.855469 22.375 L 21.855469 22.527344 " fill-opacity="1" fill-rule="nonzero"/><path fill="#2a4c5f" d="M 23.867188 22.527344 C 23.867188 22.585938 23.765625 22.636719 23.640625 22.636719 L 22.800781 22.636719 C 22.675781 22.636719 22.574219 22.585938 22.574219 22.527344 L 22.574219 22.375 C 22.574219 22.3125 22.675781 22.265625 22.800781 22.265625 L 23.640625 22.265625 C 23.765625 22.265625 23.867188 22.3125 23.867188 22.375 L 23.867188 22.527344 " fill-opacity="1" fill-rule="nonzero"/><path fill="#2a4c5f" d="M 25.875 22.527344 C 25.875 22.585938 25.777344 22.636719 25.652344 22.636719 L 24.8125 22.636719 C 24.6875 22.636719 24.585938 22.585938 24.585938 22.527344 L 24.585938 22.375 C 24.585938 22.3125 24.6875 22.265625 24.8125 22.265625 L 25.652344 22.265625 C 25.777344 22.265625 25.875 22.3125 25.875 22.375 L 25.875 22.527344 " fill-opacity="1" fill-rule="nonzero"/><path fill="#2a4c5f" d="M 27.886719 22.527344 C 27.886719 22.585938 27.789062 22.636719 27.664062 22.636719 L 26.820312 22.636719 C 26.699219 22.636719 26.597656 22.585938 26.597656 22.527344 L 26.597656 22.375 C 26.597656 22.3125 26.699219 22.265625 26.820312 22.265625 L 27.664062 22.265625 C 27.789062 22.265625 27.886719 22.3125 27.886719 22.375 L 27.886719 22.527344 " fill-opacity="1" fill-rule="nonzero"/><path fill="#2a4c5f" d="M 17.882812 23.175781 C 17.882812 23.246094 17.78125 23.300781 17.65625 23.300781 L 12.695312 23.300781 C 12.570312 23.300781 12.46875 23.246094 12.46875 23.175781 L 12.46875 23.003906 C 12.46875 22.9375 12.570312 22.882812 12.695312 22.882812 L 17.65625 22.882812 C 17.78125 22.882812 17.882812 22.9375 17.882812 23.003906 L 17.882812 23.175781 " fill-opacity="1" fill-rule="nonzero"/></svg>